<?xml version="1.0" encoding="UTF-8"?>
<svg data-bbox="45.22 37.07 756.173 776.85" viewBox="0 0 850.39 850.39" xmlns="http://www.w3.org/2000/svg" data-type="ugc">
    <g>
        <linearGradient y2="410.084" x2="547.502" y1="65.181" x1="35.373" gradientUnits="userSpaceOnUse" id="84a9b7fc-5ced-498b-a9a4-01b2ce5fe06d">
            <stop offset=".035" stop-color="#e6007e"/>
            <stop offset="1" stop-color="#36a9e1"/>
        </linearGradient>
        <path d="M45.22 89.15c42.7-17.36 85.39-34.72 128.09-52.08 94.55 6.14 189.11 12.28 283.66 18.43 26.42 2.24 63.44 7.92 105.32 23.04 24.93 9 59.6 21.84 96.61 50.63 43.74 34.02 66.61 71.53 81.09 95.79 6.14 10.28 32.7 55.84 48.34 124.09 7.8 34.02 26.19 118.86-2.31 221.47-4.03 14.53-20.89 72.17-65.16 135.62-35.88 51.41-75.1 86.54-103.47 107.78 5.49-6.43 12.77-15.34 20.8-26.37 0 0 13.15-18.05 23.76-36.22 10.34-17.71 34.93-69.55 46.17-146.35 12.82-87.61-.06-156.02-3.29-172.09-8.46-42.17-23.98-115.03-81.8-186.45-48.64-60.08-103.42-89.74-125.09-100.43-56.4-27.82-107.76-35.25-138.91-37.39-104.59-6.48-209.2-12.97-313.81-19.47z" fill="url(#84a9b7fc-5ced-498b-a9a4-01b2ce5fe06d)"/>
        <linearGradient y2="584.785" x2="429.846" y1="239.882" x1="-82.283" gradientUnits="userSpaceOnUse" id="2c5800ef-80dc-4fde-8b55-40aa8eacf1c8">
            <stop offset=".354" stop-color="#e6007e"/>
            <stop offset="1" stop-color="#009fe3"/>
        </linearGradient>
        <path d="M247.9 296.87c2.94-4.17 8.77-9.21 18.36-11.49 5.83-1.38 10.04-2.31 27.07-2.44 21.17-.16 32.78 0 45.09 1.82 9.22 1.37 16.8 3.06 22.08 4.42-.65 110.95-1.29 221.9-1.94 332.84 2.97 3.76 7.58 9.15 14.63 13.49 9.85 6.06 20.11 8.11 41.83 11.14 14.62 2.04 30.15 3.37 46.8 1.83 11.65-1.08 21.49-2.37 28.8-3.84-5.47 11.99-16.39 31.88-36.81 50.42-25.49 23.14-51.71 31.41-59.86 33.74-22.48 6.41-40.84 5.68-67.56 4.61-12.09-.48-19.09-1.52-32.03-3.44-18.81-2.79-24.77-5.06-29.75-7.82-8.25-4.57-13.76-10.47-17.11-14.74.14-136.83.27-273.69.4-410.54z" fill="url(#2c5800ef-80dc-4fde-8b55-40aa8eacf1c8)"/>
    </g>
</svg>
