<svg xmlns="http://www.w3.org/2000/svg" xmlns:xlink="http://www.w3.org/1999/xlink" viewBox="0 0 653 302.5"><defs><style>.a{fill:none;}.b{isolation:isolate;}.c{clip-path:url(#a);}.d,.i,.o,.p{fill:#09b9ea;}.aa,.ae,.ag,.ah,.ai,.am,.an,.ao,.ap,.aq,.ar,.as,.at,.au,.av,.bq,.bu,.bv,.bx,.by,.bz,.ca,.cb,.cc,.cg,.ch,.ci,.cl,.cm,.cn,.cq,.cr,.cx,.cy,.cz,.d,.da,.db,.dc,.dd,.de,.df,.dg,.dh,.dl,.do,.dp,.ds,.dt,.du,.dv,.dw,.dx,.dy,.dz,.e,.ea,.eb,.ec,.ee,.ef,.eg,.eh,.ei,.ej,.ek,.el,.em,.en,.eq,.et,.eu,.g,.h,.k,.m,.n,.p,.q,.r,.s,.t,.u,.v,.w,.x,.y,.z{fill-rule:evenodd;}.e,.f{fill:#0970c0;}.g{fill:#095cc0;}.h,.j{fill:#09ffff;}.k{fill:#92ffff;}.l{fill:url(#b);}.m{fill:url(#c);}.n{fill:url(#d);}.aa,.ak,.cs,.dk,.dn,.eu,.o,.p{opacity:0.5;}.q{fill:url(#e);}.r{fill:url(#f);}.ae,.bu,.bv,.cq,.cr,.dp,.eq,.s,.w{mix-blend-mode:screen;}.s{fill:url(#g);}.t{fill:url(#h);}.u{fill:url(#i);}.v{fill:url(#j);}.w{fill:url(#k);}.x{fill:url(#l);}.y{fill:url(#m);}.aa,.ad,.at,.cp,.ct,.cv,.cw,.dl,.do,.z{mix-blend-mode:multiply;}.z{fill:url(#n);}.aa{fill:url(#o);}.ab,.ak,.br,.bs,.bt,.cd,.ce,.cs,.di,.dj,.dk,.eu{mix-blend-mode:soft-light;}.ac{fill:#edeef7;}.ad{fill:url(#p);}.ae{fill:url(#q);}.af{fill:url(#r);}.ag{fill:url(#s);}.ah{fill:url(#t);}.ai{fill:url(#u);}.aj{fill:url(#v);}.ak{fill:url(#w);}.al{fill:url(#x);}.am{fill:url(#y);}.an{fill:url(#z);}.ao{fill:url(#aa);}.ap{fill:url(#ab);}.aq{fill:url(#ac);}.ar{fill:url(#ad);}.as{fill:url(#ae);}.at{fill:url(#af);}.au{fill:url(#ag);}.av{fill:url(#ah);}.aw{fill:url(#ai);}.ax{fill:url(#aj);}.ay{fill:url(#ak);}.az{fill:url(#al);}.ba{fill:url(#am);}.bb{fill:url(#an);}.bc{fill:url(#ao);}.bd{fill:url(#ap);}.be{fill:url(#aq);}.bf{fill:url(#ar);}.bg{fill:url(#as);}.bh{fill:url(#at);}.bi{fill:url(#au);}.bj{fill:url(#av);}.bk{fill:url(#aw);}.bl{fill:url(#ax);}.bm{fill:url(#ay);}.bn{fill:url(#az);}.bo{fill:url(#ba);}.bp{fill:#ffb893;}.bq{fill:url(#bb);}.br{fill:url(#bc);}.bs{fill:url(#bd);}.bt{fill:url(#be);}.bu{fill:url(#bf);}.bv{fill:url(#bg);}.bw{fill:url(#bh);}.bx{fill:url(#bi);}.by{fill:url(#bj);}.bz{fill:url(#bk);}.ca{fill:url(#bl);}.cb{fill:url(#bm);}.cc{fill:url(#bn);}.cd,.ce{opacity:0.8;}.cd{fill:url(#bo);}.ce{fill:url(#bp);}.cf{fill:url(#bq);}.cg{fill:url(#br);}.ch{fill:url(#bs);}.ci{fill:url(#bt);}.cj{fill:url(#bu);}.ck{fill:url(#bv);}.cl{fill:url(#bw);}.cm{fill:url(#bx);}.cn{fill:url(#by);}.co{fill:url(#bz);}.cp{fill:url(#ca);}.cq{fill:url(#cb);}.cr{fill:url(#cc);}.cs{fill:url(#cd);}.ct{fill:#7cc4fb;}.cu{fill:url(#ce);}.cv{fill:url(#cf);}.cw{fill:#84709f;}.cx{fill:url(#cg);}.cy{fill:url(#ch);}.cz{fill:url(#ci);}.da{fill:url(#cj);}.db{fill:url(#ck);}.dc{fill:url(#cl);}.dd{fill:url(#cm);}.de{fill:url(#cn);}.df{fill:url(#co);}.dg{fill:url(#cp);}.dh{fill:url(#cq);}.di{fill:url(#cr);}.dj{fill:url(#cs);}.dk{fill:url(#ct);}.dl{fill:#896165;opacity:0.2;}.dm{fill:#479aff;}.do{fill:#efacd2;}.dp{fill:url(#cu);}.dq{fill:url(#cv);}.dr{fill:url(#cw);}.ds{fill:url(#cx);}.dt{fill:url(#cy);}.du{fill:url(#cz);}.dv{fill:url(#da);}.dw{fill:url(#db);}.dx{fill:url(#dc);}.dy{fill:url(#dd);}.dz{fill:url(#de);}.ea{fill:url(#df);}.eb{fill:url(#dh);}.ec{fill:url(#di);}.ed{fill:url(#dj);}.ee{fill:url(#dk);}.ef{fill:url(#dl);}.eg{fill:url(#dm);}.eh{fill:url(#dn);}.ei{fill:url(#do);}.ej{fill:url(#dp);}.ek{fill:url(#dq);}.el{fill:url(#dr);}.em{fill:url(#ds);}.en{fill:url(#dt);}.eo{fill:url(#du);}.ep{fill:url(#dv);}.eq{fill:url(#dw);}.er{fill:url(#dx);}.es{fill:url(#dy);}.et{fill:url(#dz);}.eu{fill:#e2dbe5;}</style><clipPath id="a"><rect class="a" y="-23" width="653" height="326.5"/></clipPath><linearGradient id="b" y1="273.46" x2="653" y2="273.46" gradientUnits="userSpaceOnUse"><stop offset="0" stop-color="#6ac5d1"/><stop offset="0.97" stop-color="#1aa8e3"/></linearGradient><linearGradient id="c" x1="350.25" y1="272.52" x2="350.25" y2="135.17" gradientUnits="userSpaceOnUse"><stop offset="0" stop-color="#0073bd"/><stop offset="0.16" stop-color="#0469b3"/><stop offset="0.45" stop-color="#0f4d99"/><stop offset="0.81" stop-color="#22206f"/><stop offset="1" stop-color="#2c0657"/></linearGradient><linearGradient id="d" x1="32.1" y1="271.91" x2="32.1" y2="157.99" xlink:href="#c"/><linearGradient id="e" x1="564.84" y1="273.46" x2="564.84" y2="92.03" gradientUnits="userSpaceOnUse"><stop offset="0" stop-color="#0073bd"/><stop offset="0.03" stop-color="#026db7"/><stop offset="0.23" stop-color="#114895"/><stop offset="0.42" stop-color="#1d2b7a"/><stop offset="0.62" stop-color="#251766"/><stop offset="0.81" stop-color="#2a0a5b"/><stop offset="1" stop-color="#2c0657"/></linearGradient><linearGradient id="f" x1="535.08" y1="274.21" x2="535.08" y2="92.03" gradientUnits="userSpaceOnUse"><stop offset="0" stop-color="#0073bd"/><stop offset="0.04" stop-color="#037fc7"/><stop offset="0.21" stop-color="#1061b5"/><stop offset="0.41" stop-color="#1c44a3"/><stop offset="0.61" stop-color="#253097"/><stop offset="0.81" stop-color="#2a2390"/><stop offset="1" stop-color="#2c1f8d"/></linearGradient><linearGradient id="g" x1="547.32" y1="274.21" x2="547.32" y2="167.52" gradientUnits="userSpaceOnUse"><stop offset="0" stop-color="#7e0298"/><stop offset="1"/></linearGradient><linearGradient id="h" x1="85.72" y1="276.08" x2="85.72" y2="127.35" xlink:href="#f"/><linearGradient id="i" x1="107.3" y1="275.61" x2="104.65" y2="127.33" xlink:href="#e"/><linearGradient id="j" x1="117.96" y1="261.18" x2="53.54" y2="158.08" gradientUnits="userSpaceOnUse"><stop offset="0" stop-color="#18bdff"/><stop offset="0.54" stop-color="#0aa0f6"/><stop offset="1" stop-color="#008bef"/></linearGradient><linearGradient id="k" x1="90.51" y1="276.08" x2="90.51" y2="169.89" gradientUnits="userSpaceOnUse"><stop offset="0" stop-color="#5998ff"/><stop offset="0.15" stop-color="#5896fc"/><stop offset="0.28" stop-color="#5490f1"/><stop offset="0.4" stop-color="#4e85e0"/><stop offset="0.52" stop-color="#4577c7"/><stop offset="0.63" stop-color="#3a64a7"/><stop offset="0.74" stop-color="#2d4c80"/><stop offset="0.85" stop-color="#1c3152"/><stop offset="0.95" stop-color="#0a111d"/><stop offset="1"/></linearGradient><linearGradient id="l" x1="486.48" y1="278.08" x2="486.48" y2="39.72" gradientUnits="userSpaceOnUse"><stop offset="0" stop-color="#95e5e7"/><stop offset="1" stop-color="#ee8eff"/></linearGradient><linearGradient id="m" x1="501.45" y1="277.5" x2="501.45" y2="44.52" gradientUnits="userSpaceOnUse"><stop offset="0" stop-color="#9038c4"/><stop offset="0.26" stop-color="#6b45c4"/><stop offset="0.59" stop-color="#4252c4"/><stop offset="0.84" stop-color="#295bc4"/><stop offset="1" stop-color="#205ec4"/></linearGradient><linearGradient id="n" x1="499.03" y1="277.72" x2="494.78" y2="40.08" gradientUnits="userSpaceOnUse"><stop offset="0" stop-color="#dee1f1"/><stop offset="1" stop-color="#7286e2"/></linearGradient><linearGradient id="o" x1="466.52" y1="277.7" x2="466.52" y2="74.55" xlink:href="#n"/><linearGradient id="p" x1="483.65" y1="161.37" x2="515.5" y2="161.37" xlink:href="#n"/><linearGradient id="q" x1="487.51" y1="277.7" x2="487.51" y2="87.92" gradientUnits="userSpaceOnUse"><stop offset="0" stop-color="#7e0298"/><stop offset="0.19" stop-color="#7b0295"/><stop offset="0.35" stop-color="#73028a"/><stop offset="0.5" stop-color="#640279"/><stop offset="0.65" stop-color="#500160"/><stop offset="0.79" stop-color="#350140"/><stop offset="0.92" stop-color="#15001a"/><stop offset="1"/></linearGradient><linearGradient id="r" x1="456" y1="117.2" x2="515.41" y2="117.2" gradientUnits="userSpaceOnUse"><stop offset="0.01" stop-color="#bdffff"/><stop offset="1" stop-color="#84deff"/></linearGradient><linearGradient id="s" x1="549.68" y1="204.7" x2="604.37" y2="204.7" gradientTransform="translate(0 -69.49) scale(1 1.23)" xlink:href="#l"/><linearGradient id="t" x1="561.08" y1="231.4" x2="604.37" y2="231.4" gradientTransform="translate(0 -69.49) scale(1 1.23)" xlink:href="#m"/><linearGradient id="u" x1="549.68" y1="196.19" x2="604.37" y2="196.19" gradientUnits="userSpaceOnUse"><stop offset="0" stop-color="#ffb1ff"/><stop offset="1" stop-color="#6528ac"/></linearGradient><linearGradient id="v" x1="560.76" y1="196.14" x2="604.75" y2="196.14" xlink:href="#r"/><linearGradient id="w" x1="561.56" y1="180.33" x2="596.13" y2="180.33" gradientUnits="userSpaceOnUse"><stop offset="0" stop-color="#ffc"/><stop offset="1" stop-color="#aed4b3"/></linearGradient><linearGradient id="x" x1="549.68" y1="158.14" x2="587.35" y2="158.14" xlink:href="#r"/><linearGradient id="y" x1="130.99" y1="270.93" x2="130.99" y2="69.34" gradientTransform="matrix(1, 0.05, -0.05, 1, 5.06, -4.49)" gradientUnits="userSpaceOnUse"><stop offset="0" stop-color="#18a6c2"/><stop offset="0.99" stop-color="#2cfeff"/></linearGradient><linearGradient id="z" x1="153.28" y1="270.93" x2="153.28" y2="69.34" gradientTransform="matrix(1, 0.05, -0.05, 1, 5.06, -4.49)" xlink:href="#m"/><linearGradient id="aa" x1="158.95" y1="172.68" x2="174.77" y2="172.68" xlink:href="#y"/><linearGradient id="ab" x1="172.81" y1="270.83" x2="172.81" y2="74.43" gradientTransform="matrix(1, 0.05, -0.05, 1, 5.06, -4.49)" xlink:href="#m"/><linearGradient id="ac" x1="137.6" y1="177.57" x2="171.93" y2="177.57" gradientTransform="matrix(1, 0.05, -0.05, 1, 5.06, -4.49)" xlink:href="#m"/><radialGradient id="ad" cx="130.34" cy="177.98" r="65.85" gradientTransform="matrix(1, 0.05, -0.05, 1, 5.06, -4.49)" gradientUnits="userSpaceOnUse"><stop offset="0" stop-color="#33d5e0"/><stop offset="1" stop-color="#0083e0"/></radialGradient><linearGradient id="ae" x1="137.17" y1="273.33" x2="137.17" y2="87.3" gradientUnits="userSpaceOnUse"><stop offset="0" stop-color="#7260e7"/><stop offset="1" stop-color="#61b6f8"/></linearGradient><radialGradient id="af" cx="160.61" cy="177.98" r="66.21" gradientTransform="matrix(1, 0.05, -0.05, 1, 5.06, -4.49)" gradientUnits="userSpaceOnUse"><stop offset="0" stop-color="#ffeae7"/><stop offset="1" stop-color="#84a4cc"/></radialGradient><linearGradient id="ag" x1="143.22" y1="81.91" x2="164.41" y2="81.91" gradientTransform="matrix(1, 0.05, -0.05, 1, 5.06, -4.49)" xlink:href="#m"/><linearGradient id="ah" x1="145.98" y1="84.25" x2="145.98" y2="75.73" xlink:href="#y"/><linearGradient id="ai" x1="207.41" y1="110.41" x2="160.08" y2="99.81" gradientUnits="userSpaceOnUse"><stop offset="0" stop-color="#ff709a"/><stop offset="0.62" stop-color="#7c57c1"/><stop offset="1" stop-color="#eaffe8"/></linearGradient><linearGradient id="aj" x1="205.09" y1="118.25" x2="157.94" y2="107.68" xlink:href="#ai"/><linearGradient id="ak" x1="202.95" y1="125.61" x2="155.95" y2="115.08" xlink:href="#ai"/><linearGradient id="al" x1="200.86" y1="132.69" x2="154.04" y2="122.2" xlink:href="#ai"/><linearGradient id="am" x1="198.69" y1="140.33" x2="152.01" y2="129.87" xlink:href="#ai"/><linearGradient id="an" x1="196.62" y1="147.42" x2="150.11" y2="136.99" xlink:href="#ai"/><linearGradient id="ao" x1="194.37" y1="155.18" x2="148.06" y2="144.8" xlink:href="#ai"/><linearGradient id="ap" x1="192.08" y1="163.08" x2="145.99" y2="152.75" xlink:href="#ai"/><linearGradient id="aq" x1="189.73" y1="171.54" x2="143.78" y2="161.24" xlink:href="#ai"/><linearGradient id="ar" x1="187.53" y1="179.28" x2="141.78" y2="169.02" xlink:href="#ai"/><linearGradient id="as" x1="185.33" y1="187.02" x2="139.8" y2="176.81" xlink:href="#ai"/><linearGradient id="at" x1="182.77" y1="196.21" x2="137.46" y2="186.05" xlink:href="#ai"/><linearGradient id="au" x1="247.47" y1="201.31" x2="159" y2="181.48" gradientTransform="matrix(1, 0.05, -0.05, 1, 5.06, -4.49)" xlink:href="#ai"/><linearGradient id="av" x1="241.86" y1="198.41" x2="153.3" y2="178.56" gradientTransform="matrix(1, 0.05, -0.05, 1, 5.06, -4.49)" xlink:href="#ai"/><linearGradient id="aw" x1="239.56" y1="197.64" x2="150.76" y2="177.74" gradientTransform="matrix(1, 0.05, -0.05, 1, 5.06, -4.49)" xlink:href="#ai"/><linearGradient id="ax" x1="236.87" y1="196.27" x2="148.08" y2="176.37" gradientTransform="matrix(1, 0.05, -0.05, 1, 5.06, -4.49)" xlink:href="#ai"/><linearGradient id="ay" x1="234.43" y1="195.92" x2="144.88" y2="175.85" gradientTransform="matrix(1, 0.05, -0.05, 1, 5.06, -4.49)" xlink:href="#ai"/><linearGradient id="az" x1="231.73" y1="194.69" x2="142.05" y2="174.59" gradientTransform="matrix(1, 0.05, -0.05, 1, 5.06, -4.49)" xlink:href="#ai"/><linearGradient id="ba" x1="232.95" y1="194.37" x2="138.72" y2="173.25" gradientTransform="matrix(1, 0.05, -0.05, 1, 5.06, -4.49)" xlink:href="#ai"/><linearGradient id="bb" x1="152.31" y1="90" x2="152.31" y2="84.21" xlink:href="#y"/><linearGradient id="bc" x1="137.97" y1="121.55" x2="142.32" y2="121.55" gradientTransform="matrix(1, 0.05, -0.05, 1, 5.06, -4.49)" xlink:href="#w"/><linearGradient id="bd" x1="141.93" y1="134.04" x2="149.26" y2="134.04" gradientTransform="matrix(1, 0.05, -0.05, 1, 5.06, -4.49)" xlink:href="#w"/><linearGradient id="be" x1="141.94" y1="106.07" x2="149.26" y2="106.07" gradientTransform="matrix(1, 0.05, -0.05, 1, 5.06, -4.49)" xlink:href="#w"/><linearGradient id="bf" x1="133.95" y1="270.93" x2="133.95" y2="141.46" gradientTransform="matrix(1, 0.05, -0.05, 1, 5.06, -4.49)" xlink:href="#g"/><linearGradient id="bg" x1="140.26" y1="274.86" x2="140.26" y2="116.46" xlink:href="#k"/><linearGradient id="bh" x1="119.99" y1="113.65" x2="173.8" y2="113.65" xlink:href="#r"/><linearGradient id="bi" x1="155.26" y1="137.41" x2="274.27" y2="211.77" gradientUnits="userSpaceOnUse"><stop offset="0" stop-color="#ff90ff"/><stop offset="0.07" stop-color="#dd81ff"/><stop offset="0.23" stop-color="#9d63ff"/><stop offset="0.34" stop-color="#7551ff"/><stop offset="0.4" stop-color="#664aff"/><stop offset="0.53" stop-color="#5d67ff"/><stop offset="0.73" stop-color="#5290ff"/><stop offset="0.9" stop-color="#4ba9ff"/><stop offset="0.99" stop-color="#48b2ff"/></linearGradient><linearGradient id="bj" x1="238.7" y1="275.31" x2="238.7" y2="65.46" gradientUnits="userSpaceOnUse"><stop offset="0" stop-color="#205ec4"/><stop offset="0.22" stop-color="#2755bd"/><stop offset="0.59" stop-color="#3a3cab"/><stop offset="1" stop-color="#551890"/></linearGradient><linearGradient id="bk" x1="187.18" y1="158.69" x2="266.87" y2="208.48" gradientUnits="userSpaceOnUse"><stop offset="0" stop-color="#551890"/><stop offset="0.41" stop-color="#3a3cab"/><stop offset="0.78" stop-color="#2755bd"/><stop offset="1" stop-color="#205ec4"/></linearGradient><linearGradient id="bl" x1="152.88" y1="153.85" x2="258.15" y2="219.63" gradientUnits="userSpaceOnUse"><stop offset="0" stop-color="#ff90ff"/><stop offset="0.07" stop-color="#dd81ff"/><stop offset="0.23" stop-color="#9d63ff"/><stop offset="0.34" stop-color="#7551ff"/><stop offset="0.4" stop-color="#664aff"/><stop offset="0.4" stop-color="#664aff"/><stop offset="0.6" stop-color="#5982ff"/><stop offset="0.78" stop-color="#50abff"/><stop offset="0.91" stop-color="#4ac4ff"/><stop offset="0.99" stop-color="#48cdff"/></linearGradient><linearGradient id="bm" x1="202.73" y1="155.06" x2="202.73" y2="139.06" xlink:href="#bk"/><linearGradient id="bn" x1="199.74" y1="217.42" x2="199.74" y2="211.01" xlink:href="#bk"/><linearGradient id="bo" x1="201.73" y1="217.2" x2="201.73" y2="91.36" gradientUnits="userSpaceOnUse"><stop offset="0" stop-color="#ae97b3"/><stop offset="1" stop-color="#9dffe5"/></linearGradient><linearGradient id="bp" x1="207.36" y1="236.82" x2="217.7" y2="236.82" gradientUnits="userSpaceOnUse"><stop offset="0" stop-color="#ffffe5"/><stop offset="1" stop-color="#aed4b3"/></linearGradient><linearGradient id="bq" x1="174.5" y1="135.65" x2="239.49" y2="135.65" xlink:href="#r"/><linearGradient id="br" x1="279.28" y1="275.7" x2="279.28" y2="59.53" gradientUnits="userSpaceOnUse"><stop offset="0" stop-color="#00bfff"/><stop offset="1" stop-color="#6528ac"/></linearGradient><radialGradient id="bs" cx="288.36" cy="182.75" r="62.6" gradientUnits="userSpaceOnUse"><stop offset="0.05" stop-color="#028ded"/><stop offset="1" stop-color="#3307a9"/></radialGradient><linearGradient id="bt" x1="252.58" y1="86.44" x2="304.22" y2="86.44" gradientUnits="userSpaceOnUse"><stop offset="0" stop-color="#40dbf9"/><stop offset="1" stop-color="#0084db"/></linearGradient><linearGradient id="bu" x1="285.53" y1="183.65" x2="304.48" y2="183.65" gradientUnits="userSpaceOnUse"><stop offset="0.01" stop-color="#bdffff"/><stop offset="1" stop-color="#36a0ff"/></linearGradient><linearGradient id="bv" x1="252.29" y1="86.44" x2="286.16" y2="86.44" gradientTransform="translate(85.75 -128.71) rotate(31.74)" xlink:href="#bu"/><linearGradient id="bw" x1="312.7" y1="275.7" x2="312.7" y2="153.84" xlink:href="#br"/><radialGradient id="bx" cx="321.65" cy="219.46" r="37.54" xlink:href="#bs"/><linearGradient id="by" x1="292.09" y1="172.16" x2="328.14" y2="172.16" xlink:href="#bt"/><linearGradient id="bz" x1="292.1" y1="214.85" x2="322.68" y2="214.85" gradientUnits="userSpaceOnUse"><stop offset="0" stop-color="#36a0ff"/><stop offset="0.99" stop-color="#bdffff"/></linearGradient><linearGradient id="ca" x1="284.72" y1="275.7" x2="284.72" y2="94.22" xlink:href="#n"/><linearGradient id="cb" x1="307.76" y1="275.7" x2="307.76" y2="220.4" xlink:href="#g"/><linearGradient id="cc" x1="267.23" y1="275.7" x2="267.23" y2="232.99" xlink:href="#g"/><linearGradient id="cd" x1="279.27" y1="154.56" x2="304.89" y2="154.56" xlink:href="#w"/><linearGradient id="ce" x1="251.41" y1="77.07" x2="304.61" y2="77.07" xlink:href="#r"/><linearGradient id="cf" x1="305.76" y1="274.3" x2="333.24" y2="226.7" xlink:href="#n"/><linearGradient id="cg" x1="85.57" y1="275.74" x2="85.57" y2="159.54" gradientUnits="userSpaceOnUse"><stop offset="0" stop-color="#18a6c2"/><stop offset="0.99" stop-color="#9afeff"/></linearGradient><linearGradient id="ch" x1="97.58" y1="275.74" x2="97.58" y2="159.54" xlink:href="#m"/><linearGradient id="ci" x1="106.19" y1="275.74" x2="106.19" y2="155.06" xlink:href="#cg"/><linearGradient id="cj" x1="125.62" y1="275.74" x2="125.62" y2="155.06" xlink:href="#m"/><radialGradient id="ck" cx="96.96" cy="218.67" r="40.63" gradientTransform="matrix(1, 0, 0, 1, 0, 0)" xlink:href="#ad"/><linearGradient id="cl" x1="138.47" y1="275.74" x2="138.47" y2="221.74" xlink:href="#cg"/><linearGradient id="cm" x1="158.33" y1="275.77" x2="158.33" y2="207.5" xlink:href="#cg"/><linearGradient id="cn" x1="170.08" y1="275.77" x2="170.08" y2="207.5" xlink:href="#m"/><radialGradient id="co" cx="172.63" cy="242.05" r="24.16" gradientTransform="matrix(1, 0, 0, 1, 0, 0)" xlink:href="#ad"/><linearGradient id="cp" x1="184.89" y1="275.95" x2="184.89" y2="203.39" xlink:href="#cg"/><linearGradient id="cq" x1="200.18" y1="275.95" x2="200.18" y2="203.39" xlink:href="#m"/><linearGradient id="cr" x1="92.22" y1="225.65" x2="101.2" y2="225.65" xlink:href="#w"/><linearGradient id="cs" x1="169.2" y1="232.68" x2="176.9" y2="232.68" xlink:href="#w"/><linearGradient id="ct" x1="168.36" y1="252.68" x2="176.31" y2="252.68" xlink:href="#w"/><linearGradient id="cu" x1="142.58" y1="275.95" x2="142.58" y2="243.98" xlink:href="#g"/><linearGradient id="cv" x1="76.16" y1="215.1" x2="142.35" y2="215.1" xlink:href="#r"/><linearGradient id="cw" x1="132.9" y1="213.9" x2="209.45" y2="213.9" xlink:href="#r"/><linearGradient id="cx" x1="290.4" y1="275.77" x2="290.4" y2="211.18" gradientUnits="userSpaceOnUse"><stop offset="0" stop-color="#ee8eff"/><stop offset="0.42" stop-color="#eec4f4"/><stop offset="0.8" stop-color="#edefea"/><stop offset="0.99" stop-color="#edffe7"/></linearGradient><linearGradient id="cy" x1="312.48" y1="275.83" x2="311.32" y2="211.06" gradientUnits="userSpaceOnUse"><stop offset="0" stop-color="#8668ed"/><stop offset="1" stop-color="#956df8"/></linearGradient><linearGradient id="cz" x1="278.37" y1="221.26" x2="319.51" y2="221.26" gradientUnits="userSpaceOnUse"><stop offset="0" stop-color="#18d9e0"/><stop offset="0.99" stop-color="#2cfeff"/></linearGradient><linearGradient id="da" x1="277.87" y1="233.39" x2="319.67" y2="233.39" xlink:href="#cz"/><linearGradient id="db" x1="277.51" y1="244.06" x2="319.67" y2="244.06" xlink:href="#cz"/><linearGradient id="dc" x1="277.03" y1="255.54" x2="319.96" y2="255.54" xlink:href="#cz"/><linearGradient id="dd" x1="276.53" y1="267.48" x2="320.15" y2="267.48" gradientUnits="userSpaceOnUse"><stop offset="0" stop-color="#e5feae"/><stop offset="1" stop-color="#1888a9"/></linearGradient><radialGradient id="de" cx="316.35" cy="248.46" r="23.53" gradientTransform="matrix(1, 0, 0, 1, 0, 0)" xlink:href="#ad"/><radialGradient id="df" cx="316.35" cy="250.25" r="23.53" gradientTransform="matrix(1, 0, 0, 1, 0, 0)" xlink:href="#ad"/><radialGradient id="dh" cx="316.35" cy="250.25" r="23.53" gradientTransform="matrix(1, 0, 0, 1, 0, 0)" xlink:href="#ad"/><radialGradient id="di" cx="316.35" cy="250.25" r="23.53" gradientTransform="matrix(1, 0, 0, 1, 0, 0)" xlink:href="#ad"/><linearGradient id="dj" x1="275.93" y1="243.28" x2="304.39" y2="243.28" xlink:href="#r"/><linearGradient id="dk" x1="418.67" y1="233.12" x2="499.67" y2="233.12" gradientUnits="userSpaceOnUse"><stop offset="0.01" stop-color="#edffe7"/><stop offset="0.2" stop-color="#edefea"/><stop offset="0.58" stop-color="#eec4f4"/><stop offset="1" stop-color="#ee8eff"/></linearGradient><linearGradient id="dl" x1="486.48" y1="277.25" x2="484.9" y2="188.67" xlink:href="#cy"/><linearGradient id="dm" x1="445.98" y1="277.35" x2="445.98" y2="195.38" xlink:href="#ae"/><linearGradient id="dn" x1="486.24" y1="277.12" x2="486.24" y2="195.38" xlink:href="#m"/><linearGradient id="do" x1="416.9" y1="257.54" x2="499.14" y2="257.54" xlink:href="#dk"/><linearGradient id="dp" x1="473.6" y1="257.21" x2="499.67" y2="257.21" xlink:href="#cy"/><linearGradient id="dq" x1="416.9" y1="260.92" x2="499.67" y2="260.92" xlink:href="#bk"/><linearGradient id="dr" x1="418.6" y1="228.28" x2="499.14" y2="228.28" xlink:href="#bk"/><linearGradient id="ds" x1="418.6" y1="224.76" x2="498.14" y2="224.76" xlink:href="#dk"/><linearGradient id="dt" x1="473.29" y1="224.04" x2="499.14" y2="224.04" xlink:href="#cy"/><linearGradient id="du" x1="473.29" y1="260.67" x2="499.67" y2="260.67" xlink:href="#bk"/><linearGradient id="dv" x1="472.77" y1="227.63" x2="499.14" y2="227.63" xlink:href="#bk"/><linearGradient id="dw" x1="459.17" y1="277.35" x2="459.17" y2="238.4" gradientUnits="userSpaceOnUse"><stop offset="0.01" stop-color="#1002ff"/><stop offset="1"/></linearGradient><linearGradient id="dx" x1="416.55" y1="232.95" x2="472.81" y2="232.95" xlink:href="#r"/><linearGradient id="dy" x1="326.5" y1="303.5" x2="326.5" y2="279.61" gradientUnits="userSpaceOnUse"><stop offset="0" stop-color="#160052"/><stop offset="0.52" stop-color="#200854"/><stop offset="0.92" stop-color="#2c1157"/><stop offset="1" stop-color="#2c4097"/></linearGradient><linearGradient id="dz" x1="326.5" y1="284.04" x2="326.5" y2="279.61" gradientUnits="userSpaceOnUse"><stop offset="0" stop-color="#43459f"/><stop offset="0.34" stop-color="#3061a3"/><stop offset="0.76" stop-color="#1d7da7"/><stop offset="1" stop-color="#1687a9"/></linearGradient></defs><g class="b"><g class="c"><path class="d" d="M229.73,26.23a.51.51,0,0,1-.52.51.52.52,0,1,1,.52-.51Z"/><path class="d" d="M219.65,82.08a.52.52,0,0,1-.52.52.52.52,0,0,1-.52-.52.53.53,0,0,1,.52-.52A.52.52,0,0,1,219.65,82.08Z"/><path class="d" d="M176.64,109.32a.52.52,0,1,1-.52-.51A.52.52,0,0,1,176.64,109.32Z"/><path class="d" d="M191.33,173a.52.52,0,1,1-1,0,.52.52,0,1,1,1,0Z"/><path class="e" d="M16.36,203.29a.52.52,0,0,1-.52.52.52.52,0,1,1,0-1A.51.51,0,0,1,16.36,203.29Z"/><path class="e" d="M144,88.06a.52.52,0,1,1-.52-.51A.52.52,0,0,1,144,88.06Z"/><circle class="f" cx="118.88" cy="76.23" r="0.52"/><path class="g" d="M88.9,52.5a.52.52,0,1,1-.52-.52A.52.52,0,0,1,88.9,52.5Z"/><path class="g" d="M57.5,13.66a.52.52,0,0,1-.52.52.52.52,0,1,1,0-1A.51.51,0,0,1,57.5,13.66Z"/><path class="g" d="M66.25,130.78a.52.52,0,0,1-.52.52.52.52,0,0,1,0-1A.52.52,0,0,1,66.25,130.78Z"/><path class="g" d="M151.88,87.55a.51.51,0,0,1-.52.51.52.52,0,1,1,.52-.51Z"/><path class="h" d="M51.66,208.33a.52.52,0,1,1-1,0,.52.52,0,1,1,1,0Z"/><path class="e" d="M292.22,3.44a.52.52,0,1,1-.52-.52A.52.52,0,0,1,292.22,3.44Z"/><circle class="f" cx="37.18" cy="46.9" r="0.52"/><circle class="f" cx="64.6" cy="74.07" r="0.52"/><circle class="f" cx="112.37" cy="214.77" r="0.52"/><path class="e" d="M71.92,10a.52.52,0,1,1-1,0,.52.52,0,1,1,1,0Z"/><path class="e" d="M69.06,146.76a.52.52,0,0,1-.52.52.52.52,0,1,1,0-1A.52.52,0,0,1,69.06,146.76Z"/><path class="e" d="M290.26,142.89a.52.52,0,0,1-.52.52.52.52,0,0,1,0-1A.52.52,0,0,1,290.26,142.89Z"/><path class="e" d="M7.57,70.79a.52.52,0,0,1-.52.52.53.53,0,0,1-.52-.52.52.52,0,0,1,.52-.52A.52.52,0,0,1,7.57,70.79Z"/><path class="e" d="M247.42,120a.52.52,0,1,1-1,0,.52.52,0,1,1,1,0Z"/><path class="e" d="M89.42,33.57a.51.51,0,0,1-.52.51.52.52,0,1,1,.52-.51Z"/><path class="e" d="M210.82,157.43a.52.52,0,0,1-.52.52.52.52,0,1,1,0-1A.52.52,0,0,1,210.82,157.43Z"/><circle class="i" cx="297.73" cy="36.15" r="0.52"/><path class="e" d="M323.71,40.47a.53.53,0,0,1-.52.52.52.52,0,0,1-.52-.52.52.52,0,0,1,.52-.52A.52.52,0,0,1,323.71,40.47Z"/><path class="e" d="M263.92,175.07a.52.52,0,1,1-1,0,.52.52,0,1,1,1,0Z"/><path class="h" d="M49.23,55.49a.52.52,0,1,1-.52-.52A.52.52,0,0,1,49.23,55.49Z"/><circle class="j" cx="214.63" cy="62.26" r="0.52"/><path class="k" d="M128.85,137.18a.52.52,0,1,1-.52-.52A.51.51,0,0,1,128.85,137.18Z"/><circle class="j" cx="224.28" cy="15.79" r="0.52"/><path class="h" d="M100.37,138.88a.52.52,0,1,1-.52-.52A.52.52,0,0,1,100.37,138.88Z"/><path class="h" d="M28.7,143.41a.52.52,0,0,1-.52.52.52.52,0,0,1,0-1A.52.52,0,0,1,28.7,143.41Z"/><circle class="j" cx="169.5" cy="25.71" r="0.52"/><path class="h" d="M152.4,55.49a.52.52,0,1,1-1,0,.52.52,0,0,1,1,0Z"/><path class="h" d="M100.43,59.32a.52.52,0,0,1-.52.52.52.52,0,1,1,0-1A.52.52,0,0,1,100.43,59.32Z"/><path class="h" d="M115.45,146.24a.52.52,0,1,1-.52-.52A.52.52,0,0,1,115.45,146.24Z"/><path class="h" d="M287.34,136.33a.52.52,0,0,1-.52.52.52.52,0,0,1,0-1A.52.52,0,0,1,287.34,136.33Z"/><circle class="i" cx="529.08" cy="66.9" r="0.52"/><path class="d" d="M486.58,94.14a.52.52,0,0,1-.52.52.52.52,0,0,1-.52-.52.53.53,0,0,1,.52-.52A.52.52,0,0,1,486.58,94.14Z"/><path class="d" d="M501.28,157.78a.52.52,0,0,1-.52.52.52.52,0,0,1-.52-.52.52.52,0,0,1,.52-.52A.53.53,0,0,1,501.28,157.78Z"/><path class="e" d="M453.89,72.88a.52.52,0,0,1-.52.52.52.52,0,0,1-.52-.52.53.53,0,0,1,.52-.52A.52.52,0,0,1,453.89,72.88Z"/><path class="e" d="M429.34,61a.52.52,0,1,1-.52-.51A.52.52,0,0,1,429.34,61Z"/><path class="g" d="M398.85,37.32a.52.52,0,0,1-.52.52.52.52,0,0,1,0-1A.52.52,0,0,1,398.85,37.32Z"/><path class="g" d="M461.82,72.36a.52.52,0,1,1-.52-.52A.52.52,0,0,1,461.82,72.36Z"/><path class="e" d="M600.2,127.71a.52.52,0,1,1-.52-.52A.52.52,0,0,1,600.2,127.71Z"/><path class="e" d="M557.36,104.78a.52.52,0,0,1-1,0,.52.52,0,1,1,1,0Z"/><path class="e" d="M399.37,18.38a.52.52,0,0,1-.52.52.52.52,0,0,1-.52-.52.52.52,0,0,1,.52-.52A.53.53,0,0,1,399.37,18.38Z"/><path class="e" d="M520.76,142.25a.52.52,0,1,1-.52-.52A.52.52,0,0,1,520.76,142.25Z"/><path class="d" d="M608.19,21a.52.52,0,0,1-.52.52.52.52,0,1,1,0-1A.52.52,0,0,1,608.19,21Z"/><circle class="f" cx="633.13" cy="25.28" r="0.52"/><path class="e" d="M573.87,159.89a.53.53,0,0,1-.52.52.52.52,0,0,1-.52-.52.52.52,0,0,1,.52-.52A.52.52,0,0,1,573.87,159.89Z"/><path class="h" d="M525.09,47.08a.52.52,0,1,1-.52-.52A.52.52,0,0,1,525.09,47.08Z"/><path class="k" d="M438.79,122a.52.52,0,0,1-1,0,.52.52,0,1,1,1,0Z"/><path class="h" d="M410.31,123.7a.52.52,0,0,1-1,0,.52.52,0,1,1,1,0Z"/><path class="h" d="M462.34,40.31a.52.52,0,0,1-.52.52.52.52,0,0,1-.52-.52.53.53,0,0,1,.52-.52A.52.52,0,0,1,462.34,40.31Z"/><circle class="i" cx="536.17" cy="12.59" r="0.52"/><path class="e" d="M461,18.57a.52.52,0,1,1-.52-.52A.52.52,0,0,1,461,18.57Z"/><path class="e" d="M436.44,6.73a.52.52,0,0,1-1,0,.52.52,0,0,1,1,0Z"/><path class="g" d="M468.92,18.05a.52.52,0,0,1-.52.52.52.52,0,0,1-.52-.52.53.53,0,0,1,.52-.52A.52.52,0,0,1,468.92,18.05Z"/><path class="h" d="M410.37,44.14a.52.52,0,1,1-1,0,.52.52,0,0,1,1,0Z"/><path class="h" d="M425.39,131.06a.52.52,0,0,1-1,0,.52.52,0,1,1,1,0Z"/><path class="h" d="M597.28,121.15a.52.52,0,1,1-.52-.52A.52.52,0,0,1,597.28,121.15Z"/><path class="e" d="M625.9,56.44a.52.52,0,0,1-.52.52.53.53,0,0,1-.52-.52.52.52,0,0,1,.52-.52A.52.52,0,0,1,625.9,56.44Z"/><path class="e" d="M559.52,29a.52.52,0,1,1-1,0,.52.52,0,0,1,1,0Z"/><path class="e" d="M576,84.09a.52.52,0,1,1-.51-.52A.51.51,0,0,1,576,84.09Z"/><path class="h" d="M599.44,45.35a.52.52,0,0,1-.52.52.52.52,0,1,1,0-1A.52.52,0,0,1,599.44,45.35Z"/><circle class="i" cx="630.08" cy="98.13" r="0.52"/><circle class="f" cx="647.79" cy="133.6" r="0.52"/><path class="h" d="M621.85,122.51a.52.52,0,0,1-.52.52.52.52,0,1,1,0-1A.51.51,0,0,1,621.85,122.51Z"/><path class="e" d="M382.8,64.3a.52.52,0,0,1-1,0,.52.52,0,0,1,1,0Z"/><path class="g" d="M352.3,40.57a.52.52,0,1,1-1,0,.52.52,0,1,1,1,0Z"/><path class="e" d="M352.82,21.64a.52.52,0,1,1-1,0,.52.52,0,1,1,1,0Z"/><path class="h" d="M363.83,47.39a.52.52,0,0,1-.52.52.52.52,0,0,1-.52-.52.52.52,0,0,1,.52-.52A.53.53,0,0,1,363.83,47.39Z"/><path class="e" d="M340.62,54.65a.52.52,0,1,1-.19.71A.52.52,0,0,1,340.62,54.65Z"/><path class="g" d="M335.32,92.92a.52.52,0,0,1,.71.19.51.51,0,0,1-.19.71.52.52,0,1,1-.52-.9Z"/><path class="e" d="M318.66,101.94a.52.52,0,0,1,.52.9.52.52,0,0,1-.71-.19A.53.53,0,0,1,318.66,101.94Z"/><path class="h" d="M335.47,79.53a.52.52,0,1,1-.19.71A.51.51,0,0,1,335.47,79.53Z"/><rect class="l" y="267.31" width="653" height="12.31"/><polyline class="m" points="645.15 164.8 650.33 267.44 50.18 272.51 54.57 194.42 75.17 188.36 75.17 223.99 564.84 235.18 564.84 138.26 587.51 135.17 598.35 135.74 601.13 245.21 610.51 245.21 611.75 159.9 645.15 154.56 645.15 159.88"/><polygon class="n" points="14.02 271.08 19.05 165.14 42.44 157.99 50.18 159.13 46.47 271.91 14.02 271.08"/><path class="d" d="M21.08,228.09a.44.44,0,1,1-.44-.44A.44.44,0,0,1,21.08,228.09Z"/><path class="d" d="M21.52,228.09a.44.44,0,0,1-.44.44.44.44,0,0,1,0-.88A.44.44,0,0,1,21.52,228.09Z"/><path class="d" d="M581.43,143.49a.44.44,0,0,1-.44.44.44.44,0,0,1,0-.88A.44.44,0,0,1,581.43,143.49Z"/><circle class="o" cx="579.4" cy="152.84" r="0.44"/><circle class="o" cx="591.65" cy="152.84" r="0.44"/><path class="p" d="M531.1,104.56a.44.44,0,1,1-.44-.44A.44.44,0,0,1,531.1,104.56Z"/><path class="p" d="M539.17,104.57a.44.44,0,1,1-.43-.44A.44.44,0,0,1,539.17,104.57Z"/><path class="p" d="M545,116.31a.44.44,0,1,1-.44-.44A.44.44,0,0,1,545,116.31Z"/><path class="p" d="M529.78,116.31a.44.44,0,0,1-.44.44.44.44,0,0,1,0-.88A.44.44,0,0,1,529.78,116.31Z"/><path class="d" d="M29.53,229.11a.44.44,0,0,1-.44.44.44.44,0,0,1,0-.88A.44.44,0,0,1,29.53,229.11Z"/><path class="d" d="M584.78,143.55a.44.44,0,1,1-.88,0,.44.44,0,1,1,.88,0Z"/><path class="d" d="M594.16,152.84a.44.44,0,1,1-.88,0,.44.44,0,1,1,.88,0Z"/><path class="d" d="M68.12,199.22a.44.44,0,0,1-.88,0,.44.44,0,1,1,.88,0Z"/><circle class="i" cx="31.29" cy="229.12" r="0.44"/><path class="d" d="M579.4,143.55a.44.44,0,0,1-.44.44.44.44,0,0,1-.44-.44.44.44,0,0,1,.44-.44A.43.43,0,0,1,579.4,143.55Z"/><path class="d" d="M530.22,104.56a.44.44,0,1,1-.44-.44A.44.44,0,0,1,530.22,104.56Z"/><path class="d" d="M540.05,104.57a.44.44,0,0,1-.44.44.44.44,0,1,1,0-.88A.44.44,0,0,1,540.05,104.57Z"/><path class="d" d="M544.15,116.31a.44.44,0,1,1-.44-.44A.44.44,0,0,1,544.15,116.31Z"/><path class="d" d="M546.32,104.57a.44.44,0,1,1-.44-.44A.44.44,0,0,1,546.32,104.57Z"/><path class="d" d="M542,116.24a.44.44,0,1,1-.44-.44A.44.44,0,0,1,542,116.24Z"/><path class="d" d="M23.22,171.78a.44.44,0,1,1-.88,0,.44.44,0,1,1,.88,0Z"/><path class="p" d="M538.74,129.62a.44.44,0,0,1-.44.44.44.44,0,1,1,0-.88A.44.44,0,0,1,538.74,129.62Z"/><path class="p" d="M542,151.74a.44.44,0,1,1-.44-.44A.44.44,0,0,1,542,151.74Z"/><path class="p" d="M60.81,212.31a.43.43,0,0,1-.44.44.44.44,0,1,1,0-.87A.43.43,0,0,1,60.81,212.31Z"/><path class="p" d="M37.78,172.22a.43.43,0,0,1-.44.43.44.44,0,1,1,.44-.43Z"/><path class="d" d="M528.43,129.62a.44.44,0,1,1-.44-.44A.44.44,0,0,1,528.43,129.62Z"/><path class="d" d="M41.85,172.11a.44.44,0,1,1-.43-.44A.44.44,0,0,1,41.85,172.11Z"/><path class="d" d="M40.53,188.43a.44.44,0,1,1-.43-.44A.43.43,0,0,1,40.53,188.43Z"/><path class="d" d="M37.09,172.22a.44.44,0,1,1-.44-.44A.44.44,0,0,1,37.09,172.22Z"/><path class="d" d="M34.6,172.22a.44.44,0,1,1-.44-.44A.43.43,0,0,1,34.6,172.22Z"/><path class="d" d="M540.05,129.62a.44.44,0,0,1-.44.44.44.44,0,0,1,0-.88A.44.44,0,0,1,540.05,129.62Z"/><path class="d" d="M37.84,188.58a.44.44,0,1,1-.43-.44A.43.43,0,0,1,37.84,188.58Z"/><path class="p" d="M533.1,152a.44.44,0,0,1-.44.44.43.43,0,0,1-.44-.44.44.44,0,0,1,.44-.44A.44.44,0,0,1,533.1,152Z"/><path class="p" d="M539,163.78a.43.43,0,0,1-.44.44.44.44,0,0,1-.44-.44.44.44,0,0,1,.44-.44A.44.44,0,0,1,539,163.78Z"/><path class="d" d="M534,152a.44.44,0,0,1-.44.44.43.43,0,0,1-.44-.44.44.44,0,0,1,.44-.44A.44.44,0,0,1,534,152Z"/><path class="d" d="M517.22,152a.44.44,0,0,1-.88,0,.44.44,0,0,1,.88,0Z"/><path class="d" d="M616.58,193.58a.44.44,0,1,1-.44-.44A.44.44,0,0,1,616.58,193.58Z"/><path class="d" d="M57.9,232.51a.44.44,0,0,1-.44.44.43.43,0,0,1-.44-.44.44.44,0,0,1,.44-.44A.44.44,0,0,1,57.9,232.51Z"/><path class="d" d="M538.07,163.78a.43.43,0,0,1-.44.44.44.44,0,0,1-.44-.44.44.44,0,0,1,.44-.44A.44.44,0,0,1,538.07,163.78Z"/><circle class="i" cx="539.8" cy="152.04" r="0.44"/><path class="d" d="M66,232.51a.43.43,0,0,1-.44.44.44.44,0,0,1-.44-.44.44.44,0,0,1,.44-.44A.44.44,0,0,1,66,232.51Z"/><path class="d" d="M55.16,232.21a.44.44,0,1,1-.44-.44A.44.44,0,0,1,55.16,232.21Z"/><path class="d" d="M535.92,163.71a.44.44,0,1,1-.44-.43A.44.44,0,0,1,535.92,163.71Z"/><path class="p" d="M532.66,177.09a.44.44,0,1,1-.88,0,.44.44,0,1,1,.88,0Z"/><path class="d" d="M534,177.09a.44.44,0,0,1-.44.44.43.43,0,0,1-.44-.44.44.44,0,0,1,.44-.44A.44.44,0,0,1,534,177.09Z"/><path class="d" d="M526.28,129.55a.44.44,0,0,1-.44.44.44.44,0,0,1,0-.88A.44.44,0,0,1,526.28,129.55Z"/><path class="d" d="M58.78,212.39a.44.44,0,0,1-.44.44.44.44,0,1,1,0-.88A.44.44,0,0,1,58.78,212.39Z"/><path class="d" d="M525.68,116.31a.44.44,0,0,1-.44.44.44.44,0,0,1,0-.88A.44.44,0,0,1,525.68,116.31Z"/><path class="d" d="M526.93,104.57a.44.44,0,1,1-.44-.44A.44.44,0,0,1,526.93,104.57Z"/><path class="d" d="M528.23,116.24a.44.44,0,0,1-.44.44.44.44,0,1,1,0-.88A.44.44,0,0,1,528.23,116.24Z"/><path class="p" d="M579.3,166.31a.44.44,0,1,1-.88,0,.44.44,0,1,1,.88,0Z"/><path class="p" d="M587.38,166.32a.44.44,0,0,1-.44.44.43.43,0,0,1-.44-.44.44.44,0,0,1,.44-.44A.44.44,0,0,1,587.38,166.32Z"/><path class="p" d="M593.23,178.06a.44.44,0,1,1-.44-.44A.44.44,0,0,1,593.23,178.06Z"/><path class="p" d="M578,178.06a.44.44,0,0,1-.44.44.44.44,0,1,1,0-.88A.44.44,0,0,1,578,178.06Z"/><path class="d" d="M578.42,166.31a.43.43,0,0,1-.44.44.44.44,0,0,1-.44-.44.44.44,0,0,1,.44-.44A.44.44,0,0,1,578.42,166.31Z"/><path class="d" d="M588.25,166.32a.44.44,0,1,1-.87,0,.44.44,0,1,1,.87,0Z"/><path class="d" d="M592.35,178.06a.44.44,0,0,1-.44.44.44.44,0,1,1,0-.88A.44.44,0,0,1,592.35,178.06Z"/><path class="d" d="M594.52,166.32a.44.44,0,1,1-.88,0,.44.44,0,1,1,.88,0Z"/><path class="d" d="M590.2,178a.44.44,0,0,1-.88,0,.44.44,0,0,1,.88,0Z"/><path class="p" d="M586.94,191.37a.44.44,0,0,1-.44.44.43.43,0,0,1-.44-.44.44.44,0,0,1,.44-.44A.44.44,0,0,1,586.94,191.37Z"/><path class="p" d="M590.2,213.5a.44.44,0,1,1-.44-.44A.44.44,0,0,1,590.2,213.5Z"/><path class="d" d="M36.21,251a.44.44,0,1,1-.44-.43A.44.44,0,0,1,36.21,251Z"/><path class="d" d="M586.54,200.74a.44.44,0,0,1-.44.44.44.44,0,0,1-.44-.44.44.44,0,0,1,.44-.44A.43.43,0,0,1,586.54,200.74Z"/><path class="d" d="M588.25,191.37a.44.44,0,1,1-.87,0,.44.44,0,1,1,.87,0Z"/><circle class="o" cx="580.86" cy="213.8" r="0.44"/><path class="p" d="M587.15,225.54a.44.44,0,0,1-.44.44.44.44,0,0,1-.44-.44.44.44,0,0,1,.44-.44A.43.43,0,0,1,587.15,225.54Z"/><path class="d" d="M582.18,213.8a.44.44,0,0,1-.44.44.44.44,0,0,1,0-.88A.44.44,0,0,1,582.18,213.8Z"/><path class="d" d="M605,213.8a.44.44,0,0,1-.44.44.44.44,0,1,1,0-.88A.44.44,0,0,1,605,213.8Z"/><path class="d" d="M586.27,225.54a.44.44,0,1,1-.87,0,.44.44,0,1,1,.87,0Z"/><path class="d" d="M588.44,213.8a.44.44,0,1,1-.44-.44A.44.44,0,0,1,588.44,213.8Z"/><path class="d" d="M602.26,213.5a.44.44,0,0,1-.44.43.44.44,0,1,1,0-.87A.44.44,0,0,1,602.26,213.5Z"/><path class="d" d="M584.12,225.47a.44.44,0,0,1-.44.44.44.44,0,1,1,0-.88A.44.44,0,0,1,584.12,225.47Z"/><path class="d" d="M34.06,250.94a.44.44,0,1,1-.88,0,.44.44,0,0,1,.88,0Z"/><path class="p" d="M23.39,251a.44.44,0,1,1-.44-.43A.44.44,0,0,1,23.39,251Z"/><path class="p" d="M26.65,273.13a.44.44,0,0,1-.44.44.44.44,0,0,1-.44-.44.44.44,0,0,1,.44-.44A.43.43,0,0,1,26.65,273.13Z"/><path class="d" d="M553.5,191.37a.43.43,0,0,1-.44.44.44.44,0,0,1-.44-.44.44.44,0,0,1,.44-.44A.44.44,0,0,1,553.5,191.37Z"/><path class="d" d="M24.71,251a.44.44,0,0,1-.44.44.44.44,0,1,1,.44-.44Z"/><path class="p" d="M17.75,273.43a.44.44,0,1,1-.44-.44A.44.44,0,0,1,17.75,273.43Z"/><path class="p" d="M62.57,281.48a.44.44,0,1,1-.44-.44A.44.44,0,0,1,62.57,281.48Z"/><path class="d" d="M18.63,273.43a.44.44,0,1,1-.44-.44A.44.44,0,0,1,18.63,273.43Z"/><circle class="i" cx="581.43" cy="213.8" r="0.44"/><path class="d" d="M61.69,281.48a.44.44,0,1,1-.44-.44A.44.44,0,0,1,61.69,281.48Z"/><path class="d" d="M24.89,273.43a.44.44,0,0,1-.44.44.44.44,0,1,1,0-.88A.44.44,0,0,1,24.89,273.43Z"/><path class="d" d="M579.13,213.5a.44.44,0,1,1-.44-.44A.44.44,0,0,1,579.13,213.5Z"/><path class="d" d="M59.54,281.41a.44.44,0,0,1-.44.44.43.43,0,0,1-.44-.44.44.44,0,0,1,.44-.44A.44.44,0,0,1,59.54,281.41Z"/><path class="d" d="M551.35,191.31a.44.44,0,0,1-.88,0,.44.44,0,0,1,.88,0Z"/><path class="d" d="M72.42,234a.44.44,0,0,1-.88,0,.44.44,0,0,1,.88,0Z"/><path class="d" d="M63.6,222.08a.44.44,0,1,1-.88,0,.44.44,0,0,1,.88,0Z"/><path class="d" d="M75,233.94a.44.44,0,1,1-.44-.44A.44.44,0,0,1,75,233.94Z"/><path class="d" d="M579.4,152.84a.43.43,0,0,1-.44.44.44.44,0,0,1-.44-.44.44.44,0,0,1,.44-.44A.44.44,0,0,1,579.4,152.84Z"/><path class="d" d="M619.17,204.37a.44.44,0,1,1-.88,0,.44.44,0,1,1,.88,0Z"/><path class="d" d="M39.87,243.34a.44.44,0,0,1-.44.44.44.44,0,0,1-.44-.44.44.44,0,0,1,.44-.44A.43.43,0,0,1,39.87,243.34Z"/><path class="d" d="M44,243.57a.44.44,0,0,1-.44.44.44.44,0,0,1,0-.88A.44.44,0,0,1,44,243.57Z"/><path class="d" d="M545.84,243.39a.44.44,0,1,1-.88,0,.44.44,0,0,1,.88,0Z"/><path class="p" d="M544.25,252.74a.44.44,0,1,1-.44-.44A.44.44,0,0,1,544.25,252.74Z"/><path class="p" d="M556.5,252.74a.44.44,0,1,1-.44-.44A.44.44,0,0,1,556.5,252.74Z"/><path class="p" d="M626.26,218.28a.44.44,0,0,1-.44.44.44.44,0,0,1-.44-.44.44.44,0,0,1,.44-.44A.43.43,0,0,1,626.26,218.28Z"/><path class="p" d="M634.34,218.29a.44.44,0,0,1-.44.44.44.44,0,0,1-.44-.44.43.43,0,0,1,.44-.44A.44.44,0,0,1,634.34,218.29Z"/><path class="p" d="M640.19,230a.43.43,0,0,1-.44.44.44.44,0,0,1-.44-.44.44.44,0,0,1,.44-.44A.44.44,0,0,1,640.19,230Z"/><path class="p" d="M624.94,230a.44.44,0,1,1-.44-.44A.44.44,0,0,1,624.94,230Z"/><path class="d" d="M549.19,243.44a.44.44,0,0,1-.44.44.43.43,0,0,1-.44-.44.44.44,0,0,1,.44-.44A.44.44,0,0,1,549.19,243.44Z"/><path class="d" d="M558.56,252.74a.44.44,0,1,1-.44-.44A.44.44,0,0,1,558.56,252.74Z"/><circle class="i" cx="533.54" cy="243.18" r="0.44"/><path class="d" d="M618.53,181.79a.44.44,0,1,1-.87,0,.44.44,0,1,1,.87,0Z"/><path class="d" d="M543.81,243.44a.44.44,0,1,1-.88,0,.44.44,0,1,1,.88,0Z"/><path class="d" d="M625.38,218.28a.44.44,0,1,1-.87,0,.44.44,0,1,1,.87,0Z"/><path class="d" d="M635.22,218.29a.44.44,0,0,1-.44.44.44.44,0,0,1-.44-.44.43.43,0,0,1,.44-.44A.44.44,0,0,1,635.22,218.29Z"/><path class="d" d="M639.31,230a.43.43,0,0,1-.44.44.44.44,0,0,1-.44-.44.44.44,0,0,1,.44-.44A.44.44,0,0,1,639.31,230Z"/><path class="d" d="M641.48,218.29a.44.44,0,0,1-.88,0,.44.44,0,0,1,.88,0Z"/><path class="d" d="M637.16,230a.44.44,0,1,1-.88,0,.44.44,0,1,1,.88,0Z"/><path class="p" d="M633.9,243.34a.44.44,0,1,1-.88,0,.44.44,0,1,1,.88,0Z"/><circle class="o" cx="536.31" cy="256.46" r="0.44"/><circle class="i" cx="623.15" cy="243.34" r="0.44"/><path class="d" d="M635.22,243.34a.44.44,0,0,1-.44.44.44.44,0,0,1-.44-.44.43.43,0,0,1,.44-.44A.44.44,0,0,1,635.22,243.34Z"/><circle class="i" cx="621" cy="243.27" r="0.44"/><path class="d" d="M32.68,260.06a.44.44,0,1,1-.88,0,.44.44,0,1,1,.88,0Z"/><path class="d" d="M534.72,256.53a.44.44,0,0,1-.44.44.43.43,0,0,1-.44-.44.44.44,0,0,1,.44-.44A.44.44,0,0,1,534.72,256.53Z"/><path class="d" d="M620.84,230a.44.44,0,0,1-.88,0,.44.44,0,0,1,.88,0Z"/><path class="d" d="M622.1,218.29a.44.44,0,0,1-.44.44.44.44,0,0,1-.44-.44.43.43,0,0,1,.44-.44A.44.44,0,0,1,622.1,218.29Z"/><circle class="i" cx="622.95" cy="229.96" r="0.44"/><path class="d" d="M543.81,252.74a.44.44,0,1,1-.44-.44A.44.44,0,0,1,543.81,252.74Z"/><polygon class="q" points="554.38 273.46 550.82 92.03 574.47 105.71 578.86 273.46 554.38 273.46"/><polygon class="r" points="550.82 92.03 523.05 97.29 515.78 274.21 554.38 273.46 550.82 92.03"/><polygon class="s" points="515.78 274.21 520.16 167.52 575.27 167.58 578.86 273.46 515.78 274.21"/><polygon class="t" points="67.77 276.08 73.95 133.52 103.67 127.35 98.86 274.87 67.77 276.08"/><polygon class="u" points="103.67 127.35 113.12 129.68 113.08 275.51 98.86 274.87 103.67 127.35"/><polygon class="v" points="71.36 275.94 77.12 143.34 97.94 139.8 95.93 274.95 71.36 275.94"/><polygon class="w" points="67.77 276.08 72.3 171.49 113.25 169.89 113.08 275.51 67.77 276.08"/><polygon class="x" points="452.58 277.7 461.57 79.8 496.95 45.7 515.31 39.72 520.37 278.08 452.58 277.7"/><polygon class="y" points="515.41 44.52 484.34 74.55 480.46 277.39 522.45 277.5 515.41 44.52"/><polygon class="z" points="515.31 39.72 480.46 74.55 478.49 277.81 483.65 277.99 484.34 74.55 515.41 44.52 515.31 39.72"/><polygon class="aa" points="461.57 79.8 480.46 74.55 476.6 277.7 452.58 277.7 461.57 79.8"/><g class="ab"><rect class="ac" x="488.83" y="70.06" width="0.3" height="208.16"/><rect class="ac" x="494.19" y="65.16" width="0.3" height="207.27"/><rect class="ac" x="498.7" y="60.52" width="0.3" height="207.98"/><rect class="ac" x="502.92" y="56.91" width="0.3" height="207.27"/><rect class="ac" x="508.58" y="52.03" width="0.3" height="208.15" transform="translate(-1.61 5.34) rotate(-0.6)"/><rect class="ac" x="513.64" y="48.49" width="0.3" height="205.77" transform="translate(-3.08 10.88) rotate(-1.21)"/><polygon class="ac" points="516.21 73.23 496.01 63.34 496.14 63.07 516.34 72.96 516.21 73.23"/><polygon class="ac" points="515.69 61.66 504.71 54.91 504.87 54.66 515.85 61.4 515.69 61.66"/><polygon class="ac" points="516.27 88.06 484.28 74.68 484.4 74.41 516.39 87.78 516.27 88.06"/><polygon class="ac" points="517.14 103.95 484.28 90.21 484.4 89.93 517.26 103.67 517.14 103.95"/><polygon class="ac" points="517.14 119.84 484.28 106.1 484.4 105.82 517.26 119.57 517.14 119.84"/><polygon class="ac" points="518.06 133.96 484.29 121.99 484.39 121.71 518.16 133.68 518.06 133.96"/><polygon class="ac" points="518.57 149.51 484.29 137.88 484.39 137.6 518.67 149.23 518.57 149.51"/><polygon class="ac" points="518.97 163.87 484.3 153.78 484.38 153.49 519.05 163.58 518.97 163.87"/><polygon class="ac" points="519.46 177.69 484.31 169.67 484.37 169.38 519.52 177.4 519.46 177.69"/></g><polygon class="ad" points="515.5 48.52 488.53 76.3 488.98 278.22 483.65 277.99 484.34 74.55 515.41 44.52 515.5 48.52"/><polygon class="ae" points="522.45 277.5 516.33 87.92 461.22 95.7 452.58 277.7 522.45 277.5"/><polygon class="af" points="457 195 456 191 461.24 79.65 461.34 79.55 496.77 45.4 515.2 39.39 515.41 40.04 497.13 46 461.91 79.95 457 195"/><polygon class="ag" points="558.87 278.22 549.68 227.71 574.09 114.17 587.06 87.92 604.37 153.82 602.73 278.15 558.87 278.22"/><polygon class="ah" points="561.08 278.22 604.37 153.82 602.73 278.15 561.08 278.22"/><polygon class="ai" points="574.09 114.17 604.37 153.82 561.08 278.22 558.87 278.22 549.68 227.71 574.09 114.17"/><polygon class="aj" points="561.4 278.33 560.76 278.11 603.99 153.88 573.82 114.37 574.36 113.96 604.75 153.75 604.69 153.93 561.4 278.33"/><g class="ab"><polygon class="ac" points="602.59 278.15 600.19 165.44 600.47 165.43 602.86 278.14 602.59 278.15"/><polygon class="ac" points="601.39 278.15 595.94 177.7 569.84 133.47 570.07 133.33 596.21 177.62 596.21 177.65 601.66 278.14 601.39 278.15"/><polygon class="ac" points="600.19 278.16 589.8 195.35 567.34 145.04 567.59 144.93 590.07 195.3 600.47 278.13 600.19 278.16"/><polygon class="ac" points="598.11 278.18 583.78 212.64 564.64 158.53 564.9 158.44 584.04 212.57 598.38 278.12 598.11 278.18"/><polygon class="ac" points="596.99 278.19 578.51 227.82 561.43 172.49 561.69 172.41 578.77 227.74 597.25 278.1 596.99 278.19"/><polygon class="ac" points="596.39 278.29 573.86 241.25 557.49 192.33 557.75 192.24 574.1 241.13 596.63 278.15 596.39 278.29"/><polygon class="ac" points="595.04 278.25 569.02 255.14 569.01 255.1 553.95 207.27 554.22 207.19 569.26 254.99 595.22 278.05 595.04 278.25"/><polygon class="ac" points="593.47 278.28 564.66 269.11 564.64 269.04 551.74 217.58 552 217.51 564.88 268.9 593.55 278.02 593.47 278.28"/><polygon class="ac" points="600.61 164.38 572.76 119.88 572.99 119.73 600.84 164.24 600.61 164.38"/><polygon class="ac" points="550.84 233.36 550.57 233.29 576.89 117.98 586.64 88.48 586.9 88.56 577.16 118.06 550.84 233.36"/><polygon class="ac" points="552.5 242.49 552.23 242.42 581.37 124.57 587.35 89.51 587.62 89.55 581.64 124.63 552.5 242.49"/><polygon class="ac" points="554.17 251.7 553.91 251.62 587.35 131.68 587.73 90.99 588.01 91 587.62 131.74 554.17 251.7"/><polygon class="ac" points="555.27 260.21 555 260.13 592.23 138.09 588.76 94.92 589.03 94.9 592.51 138.12 592.5 138.14 555.27 260.21"/><polygon class="ac" points="557.03 267.46 556.77 267.37 598.93 146.86 589.91 99.32 590.18 99.27 599.21 146.88 599.2 146.92 557.03 267.46"/></g><polygon class="ak" points="561.56 172.45 578.29 228.78 596.13 176.2 570.28 131.88 561.56 172.45"/><polygon class="al" points="549.82 228.5 549.68 227.7 574.06 114.05 574.08 114.01 587.05 87.77 587.35 89 574.71 114.28 549.82 228.5"/><polygon class="am" points="114.8 272.26 123.96 79.8 137.08 71.55 130.34 273.04 114.8 272.26"/><polygon class="an" points="137.08 71.55 163.86 78.82 162.19 274.53 130.34 273.04 137.08 71.55"/><polygon class="ao" points="160.09 77.79 153.51 274.2 166.06 274.72 169.19 78.25 160.09 77.79"/><polygon class="ap" points="169.19 78.25 173.61 81.25 168.82 274.86 164.34 274.64 169.19 78.25"/><polygon class="aq" points="138.23 87.3 131.77 273.11 163.22 274.58 167.42 92.73 149.9 87.07 142.66 86.71 138.23 87.3"/><polygon class="ar" points="124.95 92.67 134.92 87.14 127.42 272.89 116.42 272.34 124.95 92.67"/><polygon class="as" points="142.57 87.52 142.29 95.61 142.29 95.62 142.28 96.02 141.99 104.13 141.97 104.53 141.71 112.08 141.7 112.48 141.46 119.57 141.44 119.98 141.15 128.19 141.14 128.59 140.89 135.68 140.88 136.09 140.6 143.88 140.6 144.29 140.32 152.23 140.3 152.63 140 161.61 139.98 162.02 139.71 169.78 139.69 170.19 139.42 177.94 139.41 178.35 139.09 187.61 139.07 188.02 136.11 273.32 135.91 273.32 131.76 273.11 134.73 187.81 134.75 187.4 135.07 178.14 135.09 177.73 135.36 169.98 135.37 169.57 135.64 161.81 135.65 161.41 135.97 152.35 135.98 151.95 136.26 144.01 136.27 143.61 136.54 135.82 136.56 135.42 136.8 128.34 136.82 127.94 137.1 119.73 137.12 119.33 137.37 112.25 137.38 111.85 137.64 104.33 137.65 103.92 137.93 96.04 137.94 95.63 138.23 87.3 142.37 87.51 142.57 87.52"/><polygon class="at" points="149.91 87.89 143.4 273.69 163.22 274.58 167.37 93.75 149.91 87.89"/><polygon class="au" points="143.88 86.8 144.28 78.81 150.33 78.6 165.25 83.61 164.85 91.7 149.9 87.07 143.88 86.8"/><polygon class="av" points="150.33 78.6 149.5 86.99 143.38 86.78 144.28 78.81 150.33 78.6"/><g class="ab"><polygon class="aw" points="167.05 100.87 166.94 101.27 166.4 101.12 165.99 101.01 162.93 100.2 162.52 100.09 159.54 99.31 159.14 99.2 156.17 98.42 155.77 98.31 152.78 97.51 152.38 97.41 149.8 96.72 149.4 96.62 149.38 96.62 142.48 96.04 142.28 96.02 142.14 96.01 142.07 96.01 137.93 96.04 137.94 95.63 142.09 95.6 142.15 95.6 142.29 95.61 142.29 95.62 142.49 95.63 149.42 96.22 149.45 96.22 149.82 96.32 152.39 97 152.79 97.1 155.78 97.9 156.19 98 159.15 98.79 159.55 98.89 162.54 99.68 162.93 99.78 166 100.6 166.4 100.7 167.05 100.87"/><polygon class="ax" points="166.65 108.8 166.55 109.19 166.21 109.11 165.81 109.01 162.65 108.23 162.25 108.14 159.25 107.41 158.86 107.31 155.88 106.58 155.49 106.48 152.49 105.75 152.1 105.65 149.51 105.02 149.12 104.92 148.97 104.89 142.17 104.54 141.97 104.53 141.77 104.52 141.72 104.52 137.64 104.33 137.65 103.92 141.73 104.11 141.79 104.11 141.99 104.13 142.19 104.14 149.03 104.49 149.13 104.52 149.52 104.61 152.11 105.24 152.51 105.34 155.5 106.08 155.9 106.17 158.87 106.89 159.27 107 162.26 107.72 162.66 107.82 165.82 108.59 166.22 108.69 166.65 108.8"/><polygon class="ay" points="166.27 116.05 166.2 116.45 166.04 116.42 165.64 116.36 162.38 115.78 161.98 115.71 158.99 115.17 158.59 115.1 155.61 114.58 155.21 114.51 152.21 113.97 151.81 113.91 149.22 113.44 148.81 113.37 148.56 113.33 141.9 112.51 141.7 112.48 141.5 112.46 141.31 112.44 137.37 112.25 137.38 111.85 141.34 112.03 141.52 112.06 141.71 112.08 141.91 112.1 148.62 112.92 148.83 112.96 149.23 113.03 151.82 113.49 152.22 113.56 155.22 114.1 155.62 114.17 158.61 114.69 159 114.76 162 115.3 162.4 115.37 165.65 115.94 166.05 116.02 166.27 116.05"/><polygon class="az" points="165.9 123.53 165.87 123.69 165.83 123.93 165.47 123.87 162.12 123.27 161.73 123.2 158.73 122.67 158.33 122.6 155.35 122.07 154.95 122 151.95 121.46 151.55 121.39 148.95 120.94 148.55 120.86 148.19 120.8 141.64 120 141.44 119.98 141.24 119.96 140.93 119.92 137.1 119.73 137.12 119.33 140.97 119.51 141.25 119.55 141.46 119.57 141.66 119.59 148.25 120.41 148.57 120.46 148.97 120.53 151.56 120.99 151.96 121.06 154.97 121.59 155.37 121.66 158.34 122.2 158.75 122.27 161.74 122.8 162.14 122.87 165.48 123.46 165.88 123.53 165.9 123.53"/><polygon class="ba" points="165.51 131.01 165.47 131.41 165.29 131.39 161.86 131 161.46 130.95 158.45 130.61 158.06 130.57 155.07 130.23 154.66 130.18 151.66 129.84 151.26 129.79 148.65 129.5 148.25 129.46 147.77 129.4 141.34 128.61 141.14 128.59 140.94 128.57 140.5 128.51 136.8 128.34 136.82 127.94 140.54 128.11 140.95 128.16 141.15 128.19 141.35 128.21 147.82 129 148.26 129.05 148.67 129.09 151.27 129.39 151.67 129.44 154.68 129.78 155.08 129.83 158.06 130.17 158.47 130.21 161.47 130.55 161.88 130.59 165.31 130.99 165.51 131.01"/><polygon class="bb" points="165.14 138.49 165.13 138.56 165.09 138.89 161.6 138.5 161.2 138.45 158.2 138.11 157.79 138.06 154.8 137.72 154.4 137.68 151.4 137.34 150.99 137.29 148.39 137 147.99 136.95 147.39 136.88 141.08 136.11 140.88 136.09 140.68 136.06 140.13 135.99 136.54 135.82 136.56 135.42 140.16 135.59 140.69 135.65 140.89 135.68 141.09 135.71 147.44 136.48 148 136.54 148.4 136.59 151.01 136.88 151.41 136.93 154.42 137.27 154.82 137.31 157.81 137.66 158.21 137.7 161.21 138.04 161.61 138.09 165.13 138.49 165.14 138.49"/><polygon class="bc" points="164.73 146.68 164.68 147.08 161.32 146.7 160.92 146.65 157.91 146.31 157.51 146.26 154.53 145.93 154.12 145.88 151.12 145.54 150.72 145.49 148.1 145.19 147.7 145.15 146.98 145.07 140.8 144.31 140.4 144.26 139.72 144.18 136.26 144.01 136.27 143.61 139.75 143.77 140.41 143.85 140.6 143.88 140.81 143.9 147.04 144.66 147.72 144.74 148.12 144.79 150.72 145.08 151.12 145.13 154.13 145.47 154.53 145.51 157.52 145.85 157.93 145.9 160.93 146.24 161.33 146.29 164.73 146.68"/><polygon class="bd" points="164.31 155.01 164.26 155.41 161.03 155.04 160.63 155 157.62 154.65 157.22 154.61 154.23 154.27 153.83 154.23 150.82 153.89 150.42 153.84 147.81 153.54 147.41 153.49 146.56 153.4 140.5 152.66 140.3 152.63 140.1 152.61 139.3 152.51 135.97 152.35 135.98 151.95 139.33 152.11 140.12 152.2 140.32 152.23 140.52 152.25 146.62 153 147.42 153.09 147.82 153.14 150.44 153.43 150.84 153.48 153.84 153.82 154.25 153.86 157.24 154.2 157.64 154.25 160.64 154.59 161.04 154.63 164.31 155.01"/><polygon class="be" points="163.88 163.34 163.85 163.74 160.74 163.49 160.34 163.46 157.33 163.22 156.93 163.18 153.93 162.95 153.53 162.91 150.52 162.67 150.12 162.64 147.5 162.43 147.1 162.4 146.12 162.32 140.18 162.04 139.98 162.02 139.78 162.02 135.64 161.81 135.65 161.41 138.86 161.56 139.79 161.61 140 161.61 140.2 161.63 146.16 161.92 147.11 162 147.51 162.03 150.13 162.24 150.53 162.27 153.54 162.51 153.94 162.54 156.94 162.78 157.34 162.81 160.35 163.06 160.75 163.09 163.88 163.34"/><polygon class="bf" points="163.47 171.49 163.44 171.89 160.45 171.65 160.05 171.62 157.04 171.38 156.64 171.35 153.64 171.11 153.24 171.08 150.24 170.84 149.83 170.8 147.21 170.59 146.81 170.56 145.72 170.48 139.89 170.19 139.49 170.18 135.36 169.98 135.37 169.57 138.45 169.71 139.51 169.77 139.71 169.78 139.91 169.78 145.75 170.08 146.83 170.16 147.23 170.19 149.85 170.4 150.25 170.43 153.26 170.68 153.66 170.71 156.66 170.95 157.06 170.98 160.07 171.22 160.47 171.25 163.47 171.49"/><polygon class="bg" points="163.06 179.65 163.03 180.05 160.18 179.81 159.77 179.78 156.76 179.54 156.36 179.51 153.37 179.27 152.96 179.24 149.95 179 149.55 178.97 146.93 178.76 146.53 178.73 145.31 178.63 139.61 178.35 139.41 178.35 139.21 178.34 135.07 178.14 135.09 177.73 138.04 177.87 139.22 177.93 139.42 177.94 139.62 177.94 145.34 178.23 146.54 178.32 146.94 178.36 149.56 178.57 149.97 178.6 152.98 178.84 153.38 178.87 156.37 179.11 156.77 179.14 159.79 179.38 160.18 179.41 163.06 179.65"/><polygon class="bh" points="162.59 189.31 162.56 189.72 159.83 189.5 159.43 189.47 156.43 189.23 156.02 189.2 153.03 188.96 152.62 188.93 149.62 188.68 149.22 188.65 146.59 188.44 146.19 188.41 144.82 188.3 139.28 188.03 139.07 188.02 138.87 188.01 134.73 187.81 134.75 187.4 137.56 187.53 138.89 187.6 139.29 187.61 144.85 187.9 146.2 188.01 146.6 188.04 149.23 188.25 149.63 188.28 152.64 188.52 153.04 188.56 156.04 188.79 156.44 188.83 159.45 189.07 159.85 189.1 162.59 189.31"/><polygon class="bi" points="136.31 273.34 135.9 273.32 142.37 87.51 142.77 87.53 136.31 273.34"/><polygon class="bj" points="143.6 273.7 143.2 273.68 149.71 87.88 150.11 87.9 143.6 273.7"/><polygon class="bk" points="146.66 273.86 146.26 273.84 152.68 88.87 153.08 88.89 146.66 273.86"/><polygon class="bl" points="150.08 274.03 149.67 274.01 156.09 89.04 156.5 89.06 150.08 274.03"/><polygon class="bm" points="153.49 274.2 153.09 274.18 159.41 91.14 159.82 91.16 153.49 274.2"/><polygon class="bn" points="156.91 274.37 156.5 274.35 162.82 91.6 163.22 91.62 156.91 274.37"/><polygon class="bo" points="162.4 274.54 161.99 274.52 166.19 92.67 166.59 92.69 162.4 274.54"/></g><rect class="bp" x="124.95" y="156.03" width="0.4" height="10.62" transform="translate(-42.24 278.26) rotate(-87.13)"/><rect class="bp" x="124.44" y="164.07" width="0.4" height="10.82" transform="translate(-50.87 285.49) rotate(-87.13)"/><rect class="bp" x="123.89" y="171.9" width="0.4" height="10.83" transform="translate(-56.15 297.12) rotate(-88.63)"/><rect class="bp" x="123.17" y="181.8" width="0.4" height="11.06" transform="translate(-70.82 299.59) rotate(-86.66)"/><polygon class="bq" points="138.19 88.12 142.57 87.52 149.91 87.89 167.37 93.75 167.42 92.73 149.9 87.07 142.66 86.71 138.23 87.3 138.19 88.12"/><polygon class="br" points="137.77 112.22 136.18 135.79 140.53 135.59 141.72 112.03 137.77 112.22"/><polygon class="bs" points="140.93 119.92 139.75 143.77 139.33 152.1 146.57 153.4 147.82 129 148.25 120.4 140.93 119.92"/><polygon class="bt" points="141.34 112.03 148.62 112.92 148.97 104.89 141.72 104.51 141.34 112.03"/><polygon class="bu" points="114.8 272.26 120.95 142.94 139.68 149.3 136.1 273.33 114.8 272.26"/><polygon class="bv" points="167.28 274.86 166.2 116.45 121.88 121.85 113.24 272.42 167.28 274.86"/><polygon class="bw" points="120.67 156.12 119.99 156.09 123.63 79.61 137.03 71.18 160.17 77.46 169.31 77.91 173.8 80.97 173.42 81.53 169.08 78.58 160.07 78.13 137.14 71.91 124.29 79.99 120.67 156.12"/><polygon class="bx" points="174.61 275.31 186.15 87.97 239.36 65.46 242.84 66.32 234.56 275.31 174.61 275.31"/><polygon class="by" points="234.56 275.31 239.36 275.31 242.84 66.32 239.36 65.46 234.56 275.31"/><g class="ab"><rect class="ac" x="103.99" y="169.39" width="167.42" height="0.34" transform="translate(9.55 349.12) rotate(-87.32)"/><rect class="ac" x="108.96" y="168.22" width="169.76" height="0.34" transform="translate(16.57 354.14) rotate(-87.32)"/><rect class="ac" x="113.53" y="166.63" width="172.94" height="0.34" transform="translate(24.03 358.78) rotate(-87.32)"/><rect class="ac" x="118.36" y="165.32" width="175.57" height="0.34" transform="translate(31.2 363.67) rotate(-87.32)"/><rect class="ac" x="123.19" y="164.01" width="178.2" height="0.34" transform="translate(38.37 368.56) rotate(-87.32)"/><rect class="ac" x="128.03" y="162.69" width="180.83" height="0.34" transform="translate(45.54 373.45) rotate(-87.32)"/><rect class="ac" x="134.53" y="160.89" width="184.44" height="0.34" transform="translate(55.26 380.03) rotate(-87.32)"/></g><polygon class="bz" points="223.11 275.7 229.25 91.36 230.79 91.36 224.86 275.7 223.11 275.7"/><polygon class="ca" points="229.25 91.36 180.4 109.81 170.88 275.31 223.11 275.7 229.25 91.36"/><g class="ab"><rect class="ac" x="96.4" y="191.91" width="167.42" height="0.34" transform="translate(-20.23 362.95) rotate(-87.3)"/><rect class="ac" x="101.37" y="190.74" width="169.77" height="0.34" transform="translate(-13.21 367.97) rotate(-87.3)"/><rect class="ac" x="106.34" y="189.57" width="172.11" height="0.34" transform="translate(-6.19 372.99) rotate(-87.3)"/><rect class="ac" x="111.31" y="188.4" width="174.45" height="0.34" transform="translate(0.82 378.01) rotate(-87.3)"/><rect class="ac" x="116.28" y="187.23" width="176.79" height="0.34" transform="translate(7.85 383.03) rotate(-87.3)"/><rect class="ac" x="121.25" y="186.06" width="179.13" height="0.34" transform="translate(14.86 388.05) rotate(-87.3)"/><rect class="ac" x="127.83" y="184.46" width="182.34" height="0.34" transform="translate(24.27 394.7) rotate(-87.3)"/></g><polygon class="cb" points="177.81 154.72 227.66 139.06 227.66 139.84 177.79 155.06 177.81 154.72"/><polygon class="cc" points="174.21 217.2 225.26 211.01 225.24 211.81 174.21 217.42 174.21 217.2"/><polygon class="cd" points="174.21 217.2 197.34 214.39 199.74 160.56 225.53 152.88 229.25 91.36 180.4 109.81 174.21 217.2"/><polygon class="ce" points="207.36 261 209.55 213.54 217.7 212.64 215.47 261 207.36 261"/><polygon class="cf" points="175.18 206.16 174.5 206.12 180.07 109.57 184.59 107.86 185.82 87.74 239.23 65.14 239.49 65.77 186.48 88.2 185.24 108.34 180.73 110.05 175.18 206.16"/><polygon class="cg" points="247.09 275.7 252.58 59.53 304.22 91.82 311.47 275.7 247.09 275.7"/><polygon class="ch" points="287.14 275.7 285.87 113.34 304.22 91.82 311.47 275.7 287.14 275.7"/><polygon class="ci" points="252.58 59.53 285.87 113.34 304.22 91.82 252.58 59.53"/><polygon class="cj" points="286.8 275.7 285.53 113.22 303.96 91.59 304.48 92.04 286.21 113.46 287.48 275.7 286.8 275.7"/><rect class="ck" x="268.88" y="54.8" width="0.68" height="63.27" transform="translate(-5.2 154.57) rotate(-31.74)"/><g class="ab"><polygon class="ac" points="261.38 275.7 261.04 275.7 263.58 76.55 263.92 76.55 261.38 275.7"/><polygon class="ac" points="270.09 275.7 269.75 275.7 272.1 91.36 272.44 91.36 270.09 275.7"/><polygon class="ac" points="291.92 275.71 288.93 109.64 280.46 103.82 278.27 275.7 277.93 275.7 280.12 103.18 289.27 109.46 289.27 109.55 292.26 275.7 291.92 275.71"/><rect class="ac" x="295.56" y="103.49" width="0.34" height="172.23" transform="translate(-3.19 5.07) rotate(-0.98)"/><rect class="ac" x="298.53" y="99.87" width="0.34" height="175.84" transform="translate(-3.16 5.12) rotate(-0.98)"/><polygon class="ac" points="308.72 275.71 302.55 93.79 256.68 66.19 254 275.7 253.66 275.7 256.35 65.59 256.6 65.74 302.89 93.6 302.89 93.69 309.06 275.7 308.72 275.71"/><polygon class="ac" points="303.08 275.71 300.03 96.89 262.46 75.71 252.14 79.13 252.03 78.8 262.5 75.34 262.56 75.38 300.37 96.69 300.37 96.78 303.42 275.7 303.08 275.71"/><polygon class="ac" points="251.49 108.08 251.44 107.74 280.26 103.33 280.32 103.67 251.49 108.08"/><rect class="ac" x="250.9" y="114.85" width="35.12" height="0.34" transform="translate(-11.22 30.89) rotate(-6.45)"/><polygon class="ac" points="304.61 103.65 297.13 100.04 267.46 83.8 252.13 87.54 252.05 87.21 267.51 83.44 267.56 83.47 297.28 99.74 304.75 103.35 304.61 103.65"/><polygon class="ac" points="304.86 109.96 293.39 105.04 272.24 91.54 251.5 95.98 251.43 95.65 272.31 91.18 272.37 91.22 293.55 104.74 305 109.65 304.86 109.96"/><rect class="ac" x="295.43" y="106.37" width="0.34" height="20.55" transform="translate(90.03 358.98) rotate(-71.23)"/><rect class="ac" x="295.65" y="118.06" width="0.34" height="20.72" transform="translate(90.33 376.96) rotate(-73.88)"/><rect class="ac" x="295.85" y="128.32" width="0.34" height="20.97" transform="translate(87.8 390.87) rotate(-75.56)"/><rect class="ac" x="296.12" y="139.59" width="0.34" height="21.12" transform="translate(87.05 408.13) rotate(-77.83)"/><rect class="ac" x="288.93" y="157.35" width="0.34" height="6.42" transform="translate(71.21 409.32) rotate(-77.83)"/><rect class="ac" x="289.04" y="168.56" width="0.34" height="6.53" transform="translate(88.34 441.68) rotate(-84.05)"/><rect class="ac" x="289.04" y="178.76" width="0.34" height="6.53" transform="translate(78.2 450.82) rotate(-84.05)"/><rect class="ac" x="289.55" y="197.25" width="0.34" height="6.53" transform="translate(60.27 467.9) rotate(-84.05)"/><rect class="ac" x="289.24" y="187.87" width="0.34" height="6.95" transform="translate(61.36 452.82) rotate(-82.38)"/><rect class="ac" x="289.72" y="206.35" width="0.34" height="6.53" transform="translate(51.36 476.23) rotate(-84.05)"/><rect class="ac" x="289.88" y="215.35" width="0.34" height="6.53" transform="translate(42.57 484.45) rotate(-84.05)"/><rect class="ac" x="289.94" y="224.42" width="0.34" height="6.99" transform="translate(33.35 492.84) rotate(-84.05)"/><rect class="ac" x="290.36" y="234.1" width="0.34" height="6.88" transform="translate(24.16 501.89) rotate(-84.05)"/><rect class="ac" x="290.3" y="242.37" width="0.34" height="6.95" transform="translate(30.8 524.03) rotate(-87.21)"/><rect class="ac" x="290.52" y="251.8" width="0.34" height="7.15" transform="translate(21.83 533.63) rotate(-87.28)"/><rect class="ac" x="290.49" y="261.59" width="0.34" height="7.36" transform="translate(11.27 542.38) rotate(-87.15)"/><rect class="ac" x="250.72" y="127.18" width="35.34" height="0.34" transform="translate(-11.69 28.34) rotate(-5.91)"/><rect class="ac" x="250.77" y="137.63" width="35.15" height="0.34" transform="translate(-9.29 19.83) rotate(-4.16)"/><rect class="ac" x="250.77" y="149.02" width="35.15" height="0.34" transform="translate(-10.12 19.86) rotate(-4.16)"/><rect class="ac" x="249.93" y="160.65" width="35.99" height="0.34" transform="matrix(1, -0.07, 0.07, 1, -10.92, 19.78)"/><rect class="ac" x="249.95" y="172.36" width="35.94" height="0.34" transform="translate(-8.52 14.02) rotate(-2.95)"/><rect class="ac" x="249.41" y="182.45" width="36.49" height="0.34" transform="translate(-9.05 14.02) rotate(-2.95)"/><rect class="ac" x="249.17" y="191.66" width="36.72" height="0.34" transform="translate(-9.57 14.1) rotate(-2.97)"/><rect class="ac" x="248.94" y="200.86" width="36.96" height="0.34" transform="translate(-9.99 14.03) rotate(-2.95)"/><rect class="ac" x="248.7" y="210.06" width="37.19" height="0.34" transform="translate(-10.52 14.12) rotate(-2.97)"/><rect class="ac" x="248.47" y="219.27" width="37.42" height="0.34" transform="translate(-10.94 14.04) rotate(-2.95)"/><rect class="ac" x="248.24" y="228.45" width="38.36" height="0.34" transform="translate(-11.41 14.07) rotate(-2.95)"/><polygon class="ac" points="248.03 238.98 248.02 238.64 286.83 237.04 286.85 237.38 248.03 238.98"/><rect class="ac" x="247.77" y="246.85" width="39.17" height="0.34" transform="translate(-12.43 14.17) rotate(-2.97)"/><rect class="ac" x="247.53" y="256.05" width="39.47" height="0.34" transform="translate(-12.83 14.09) rotate(-2.95)"/><rect class="ac" x="247.32" y="265.78" width="39.75" height="0.34" transform="translate(-6.8 7.01) rotate(-1.48)"/><rect class="ac" x="247.09" y="275.53" width="40.05" height="0.34"/></g><polygon class="cl" points="292.09 153.84 294.54 275.7 333.3 275.7 328.14 164.44 292.09 153.84"/><polygon class="cm" points="328.14 164.44 320.39 190.49 322.34 275.7 333.3 275.7 328.14 164.44"/><polygon class="cn" points="292.09 153.84 320.39 190.49 328.14 164.44 292.09 153.84"/><polygon class="co" points="322 275.71 320.06 190.61 292.1 154.4 292.64 153.99 320.73 190.37 320.73 190.48 322.68 275.69 322 275.71"/><rect class="ac" x="310.68" y="177.12" width="27.18" height="0.68" transform="translate(61.51 437.47) rotate(-73.39)"/><g class="ab"><rect class="ac" x="297.19" y="158.53" width="0.34" height="117.19" transform="translate(-4.88 6.85) rotate(-1.31)"/><polygon class="ac" points="305.63 275.71 303.51 168.85 303.85 168.84 305.97 275.7 305.63 275.71"/><polygon class="ac" points="311.3 275.71 309.13 176.13 309.47 176.12 311.64 275.7 311.3 275.71"/><polygon class="ac" points="317.4 275.71 315.02 183.76 315.37 183.75 317.74 275.7 317.4 275.71"/><rect class="ac" x="326.63" y="175.58" width="0.34" height="100.16" transform="translate(-8.12 12.24) rotate(-2.12)"/><polygon class="ac" points="331.32 275.71 326.02 168.85 326.36 168.84 331.66 275.69 331.32 275.71"/><polygon class="ac" points="325.13 275.71 322.18 183.65 312.09 179.94 293.33 182.53 293.28 182.2 312.13 179.59 312.17 179.6 322.51 183.41 322.51 183.53 325.47 275.7 325.13 275.71"/><rect class="ac" x="292.84" y="190.98" width="27.57" height="0.34" transform="translate(-8.66 14.64) rotate(-2.7)"/><rect class="ac" x="306.63" y="187.11" width="0.34" height="27.67" transform="translate(103.89 506.44) rotate(-89.63)"/><rect class="ac" x="306.82" y="196.24" width="0.34" height="27.71" transform="translate(93.87 514.99) rotate(-89.43)"/><rect class="ac" x="307.27" y="205.23" width="0.34" height="27.71" transform="translate(85.31 524.34) rotate(-89.43)"/><rect class="ac" x="307.27" y="214.43" width="0.34" height="27.71" transform="translate(76.13 533.45) rotate(-89.43)"/><rect class="ac" x="307.27" y="224.16" width="0.34" height="27.71" transform="translate(66.39 543.08) rotate(-89.43)"/><rect class="ac" x="307.63" y="232.16" width="0.34" height="27.71" transform="translate(58.74 551.35) rotate(-89.43)"/><rect class="ac" x="307.94" y="241.69" width="0.34" height="27.71" transform="translate(49.53 561.1) rotate(-89.43)"/><rect class="ac" x="307.94" y="251.41" width="0.34" height="27.71" transform="matrix(0.01, -1, 1, 0.01, 39.8, 570.73)"/><polygon class="ac" points="324.9 175.78 303.68 169.02 292.51 172.33 292.41 172 303.68 168.67 303.73 168.68 325 175.45 324.9 175.78"/><rect class="ac" x="310.93" y="147.76" width="0.34" height="31.87" transform="translate(55.66 405.22) rotate(-71.15)"/></g><polygon class="cp" points="251.46 95.81 258.94 94.22 261.21 256.91 269.92 256.08 270.4 237.88 278.58 238.01 278.58 218.85 286.81 218.27 291.06 218.61 292.97 212.44 294.3 263.83 305.26 265.08 305.8 271.51 322.25 271.51 322.34 275.7 247.09 275.7 251.46 95.81"/><polygon class="cq" points="294.54 275.7 293.3 220.4 320.85 221.79 322.21 275.35 294.54 275.7"/><polygon class="cr" points="247.33 275.37 248.26 234.69 286.81 232.99 287.14 275.7 247.33 275.37"/><polygon class="cs" points="279.27 148.45 286.62 148.07 304.69 151.97 304.89 157.68 292.09 153.84 292.24 161.05 285.51 159.5 279.57 159.88 279.27 148.45"/><polygon class="ct" points="294.54 275.7 292.09 153.84 306.63 158.2 293.14 154.56 303.25 275.7 294.54 275.7"/><polygon class="cu" points="252.09 95.74 251.41 95.72 252.25 58.4 304.61 91.67 304.25 92.24 252.91 59.62 252.09 95.74"/><polygon class="cv" points="309.67 224.49 328.57 224.01 329.98 275.39 308.2 275.7 309.67 224.49"/><polygon class="cw" points="203.29 214.77 222.12 212.64 222.12 275.31 203.29 275.31 203.29 214.77"/><polygon class="cx" points="76.5 275.46 83.56 163.1 94.64 159.54 88.07 275.74 76.5 275.46"/><polygon class="cy" points="94.64 159.54 108.08 163.1 103.66 275.74 87.09 275.74 94.64 159.54"/><polygon class="cz" points="95.89 275.74 103.77 158.75 116.5 155.06 108.95 275.74 95.89 275.74"/><polygon class="da" points="116.5 155.06 142.29 159.62 138.75 275.74 108.95 275.74 116.5 155.06"/><polygon class="db" points="90.34 275.74 97.92 163.52 103.57 161.59 97.11 275.74 90.34 275.74"/><polygon class="dc" points="118.98 275.74 121.6 225.64 157.97 221.74 155.07 275.74 118.98 275.74"/><polygon class="dd" points="149.66 275.74 153.13 210.52 167 207.5 163.84 275.77 149.66 275.74"/><polygon class="de" points="167 207.5 176.31 208.85 173.97 275.61 163.84 275.77 167 207.5"/><polygon class="df" points="167.16 275.62 171 210.14 178.11 208.32 176.64 275.79 167.16 275.62"/><polygon class="dg" points="175.45 275.95 177.62 206.17 194.32 203.39 190.96 275.95 175.45 275.95"/><polygon class="dh" points="194.32 203.39 209.39 206.17 207.84 275.95 190.96 275.95 194.32 203.39"/><polygon class="di" points="94.95 207.5 101.2 203.39 98.97 242.86 92.22 247.91 94.95 207.5"/><polygon class="dj" points="170.25 223.53 176.9 220.14 176.31 241.63 169.2 245.21 170.25 223.53"/><polygon class="dk" points="168.52 252.26 176.31 248.25 176.16 253.31 168.36 257.11 168.52 252.26"/><polygon class="dl" points="92.67 189.84 96.13 190.04 93.7 225.93 90.24 227.2 92.67 189.84"/><polygon class="dl" points="165.4 242.13 169.2 241.63 167.67 269.5 164.1 270.25 165.4 242.13"/><polygon class="dm" points="100.22 275.32 99.89 275.3 107.21 157.69 107.55 157.72 100.22 275.32"/><rect class="dm" x="47.47" y="216.12" width="119.09" height="0.34" transform="translate(-114.94 310.99) rotate(-86.78)"/><polygon class="dm" points="107.19 275.71 106.85 275.69 112.88 156.06 113.22 156.07 107.19 275.71"/><polygon class="dm" points="79.04 275.53 78.7 275.51 85.4 162.1 85.74 162.12 79.04 275.53"/><polygon class="dm" points="82.39 275.53 82.05 275.51 88.08 161.59 88.42 161.6 82.39 275.53"/><polygon class="dm" points="85.74 275.96 85.4 275.94 90.5 160.81 90.83 160.82 85.74 275.96"/><g class="dn"><rect class="dm" x="98.05" y="250.34" width="50.45" height="0.34" transform="translate(-133.28 360.66) rotate(-87.03)"/><rect class="dm" x="101.62" y="250.06" width="51" height="0.34" transform="translate(-129.36 364.23) rotate(-87.03)"/><rect class="dm" x="105.36" y="249.93" width="51.28" height="0.34" transform="translate(-125.54 367.98) rotate(-87.03)"/><rect class="dm" x="109.14" y="249.67" width="51.79" height="0.34" transform="translate(-121.47 371.76) rotate(-87.03)"/><polygon class="dm" points="137.99 275.79 137.65 275.78 140.43 223.59 140.77 223.61 137.99 275.79"/><rect class="dm" x="117.35" y="249.36" width="52.58" height="0.34" transform="translate(-112.95 380.13) rotate(-87.05)"/><rect class="dm" x="121.71" y="249.04" width="53.22" height="0.34" transform="translate(-108.19 384.51) rotate(-87.05)"/></g><rect class="dm" x="121.38" y="242.57" width="65.96" height="0.34" transform="translate(-97.32 382.05) rotate(-86.51)"/><rect class="dm" x="124.59" y="242.26" width="66.64" height="0.34" transform="translate(-92.37 387.58) rotate(-87.03)"/><rect class="dm" x="128.05" y="241.79" width="67.37" height="0.34" transform="translate(-88.93 389.86) rotate(-86.78)"/><polygon class="dm" points="179.56 275.96 179.22 275.94 182.31 205.35 182.65 205.37 179.56 275.96"/><polygon class="dm" points="183.64 276.09 183.3 276.08 186.75 204.61 187.09 204.63 183.64 276.09"/><polygon class="dm" points="187.93 276.01 187.59 275.99 190.57 203.98 190.91 203.99 187.93 276.01"/><polygon class="do" points="121.6 225.64 131 224.63 132.32 275.6 118.98 275.74 121.6 225.64"/><polygon class="dp" points="76.5 275.46 78.41 245.21 208.66 243.98 207.84 275.95 76.5 275.46"/><polygon class="dq" points="76.84 275.49 76.16 275.44 83.24 162.84 94.63 159.19 102.95 161.39 103.25 161.32 103.44 158.49 116.48 154.72 116.56 154.73 142.35 159.29 142.23 159.96 116.52 155.41 104.09 159.01 103.89 161.87 102.94 162.09 94.64 159.9 83.89 163.35 76.84 275.49"/><polygon class="dr" points="132.98 224.76 132.9 224.09 152.06 222.03 152.81 210.24 166.99 207.15 167.05 207.16 176.26 208.5 177.22 208.1 177.29 205.88 194.32 203.04 194.38 203.05 209.45 205.83 209.32 206.5 194.32 203.73 177.95 206.46 177.88 208.56 176.35 209.2 167.01 207.84 153.46 210.8 152.71 222.65 132.98 224.76"/><polygon class="ds" points="276.27 275.71 278.88 212.83 304.37 211.18 304.52 275.77 276.27 275.71"/><polygon class="dt" points="304.37 211.18 319.31 213.18 320.31 275.69 304.52 275.77 304.37 211.18"/><polygon class="du" points="278.52 219.78 304.11 218.46 319.31 219.78 319.51 224.07 304.11 222.76 278.37 223.51 278.52 219.78"/><polygon class="dv" points="278.02 231.6 304.37 230.86 319.51 231.63 319.68 235.93 304.52 235.09 277.87 235.33 278.02 231.6"/><polygon class="dw" points="277.66 242.23 304.44 241.53 319.68 242.3 319.68 246.59 304.45 245.75 277.51 245.96 277.66 242.23"/><polygon class="dx" points="277.19 253.69 304.37 252.98 319.96 253.81 319.96 258.1 304.47 257.25 277.03 257.43 277.19 253.69"/><polygon class="dy" points="276.68 265.88 303.94 265.17 320.15 265.6 320.15 269.79 304.05 269.44 276.53 269.62 276.68 265.88"/><polygon class="dz" points="304.48 218.46 304.48 222.79 319.51 224.07 319.31 219.78 304.48 218.46"/><polygon class="ea" points="304.37 230.86 304.52 235.09 319.68 235.93 319.51 231.63 304.37 230.86"/><polygon class="ea" points="304.44 241.53 304.45 245.75 319.84 246.59 319.78 242.38 304.44 241.53"/><polygon class="eb" points="304.37 252.98 304.47 257.25 319.96 258.1 319.96 253.81 304.37 252.98"/><polygon class="ec" points="304.37 265.17 304.44 269.45 320.15 269.79 320.15 265.6 304.37 265.17"/><polygon class="ed" points="276.61 275.72 275.93 275.69 278.56 212.51 304.35 210.84 304.39 211.52 279.21 213.15 276.61 275.72"/><polygon class="ee" points="420.93 195.26 472.77 188.89 497 193.24 499.67 277.01 418.67 277.35 420.93 195.26"/><polygon class="ef" points="473.29 277.12 472.77 188.89 497 193.24 499.67 277.01 473.29 277.12"/><polygon class="eg" points="418.67 277.35 420.74 199.93 472.82 195.38 473.29 277.12 418.67 277.35"/><polygon class="eh" points="472.82 195.38 497.21 197.44 499.67 277.01 473.29 277.12 472.82 195.38"/><g class="ab"><rect class="ac" x="386.34" y="238.25" width="77.84" height="0.3" transform="matrix(0.02, -1, 1, 0.02, 180.08, 659.79)"/><rect class="ac" x="431.16" y="199.16" width="0.3" height="77.86"/><rect class="ac" x="436.7" y="198.52" width="0.3" height="78.49"/><polygon class="ac" points="442.7 277.02 442.4 277.01 442.96 197.98 443.26 197.98 442.7 277.02"/><rect class="ac" x="449.13" y="197.44" width="0.3" height="79.91"/><rect class="ac" x="455.7" y="196.87" width="0.3" height="80.26"/><rect class="ac" x="463.51" y="196.18" width="0.3" height="80.83"/><polygon class="ac" points="478.74 277.02 478.17 196.18 478.47 196.18 479.04 277.01 478.74 277.02"/><rect class="ac" x="483.78" y="196.57" width="0.3" height="80.45" transform="matrix(1, -0.02, 0.02, 1, -3.69, 7.69)"/><rect class="ac" x="489.01" y="196.57" width="0.3" height="80.45" transform="matrix(1, -0.02, 0.02, 1, -3.69, 7.77)"/><rect class="ac" x="493.8" y="197.17" width="0.3" height="80.45" transform="translate(-3.7 7.85) rotate(-0.91)"/></g><polygon class="ei" points="417.05 255.67 472.97 253.86 498.98 254.72 499.14 260.55 473.29 260.1 416.9 261.23 417.05 255.67"/><polygon class="ej" points="473.6 253.88 473.77 260.11 499.67 260.55 499.67 254.74 473.6 253.88"/><polygon class="ek" points="416.9 261.23 419.1 261.74 473.29 260.85 499.17 260.85 499.67 260.55 473.29 260.1 416.9 261.23"/><polygon class="el" points="418.6 229.03 420.18 229.78 473.06 227.96 498.19 228.49 499.14 227.62 473.29 226.78 418.6 229.03"/><polygon class="em" points="418.73 224.08 473.61 220.5 497.98 222.34 498.14 227.62 473.29 226.78 418.6 229.03 418.73 224.08"/><polygon class="en" points="473.29 220.47 473.29 226.78 499.14 227.62 499.14 222.42 473.29 220.47"/><polygon class="eo" points="473.29 260.85 473.77 260.11 499.67 260.55 499.18 261.23 473.29 260.85"/><polygon class="ep" points="472.77 227.97 473.29 226.78 499.14 227.62 498.19 228.49 472.77 227.97"/><polygon class="eq" points="418.67 277.35 419.66 240.44 498.14 238.4 499.67 277.01 418.67 277.35"/><polygon class="er" points="419.01 277.36 418.33 277.34 418.76 262.01 416.55 261.5 416.71 255.33 418.92 255.34 419.83 229.99 418.25 229.25 418.4 223.74 419.85 223.74 420.6 194.96 472.73 188.55 472.81 189.23 421.27 195.56 420.51 224.42 419.07 224.42 418.95 228.82 420.53 229.56 419.58 256.02 417.38 256.01 417.24 260.96 419.45 261.47 419.01 277.36"/><rect class="es" y="279.61" width="653" height="23.89"/><polygon class="et" points="0 279.61 0 282.8 653 284.04 653 279.61 0 279.61"/><polygon class="eu" points="0 282.8 652.74 298.46 653 284.04 0 282.8"/></g></g></svg>