<?xml version="1.0" encoding="UTF-8"?>
<svg data-bbox="-0.5 -0.5 1787 662" height="662" width="1787" xmlns="http://www.w3.org/2000/svg" shape-rendering="geometricPrecision" text-rendering="geometricPrecision" image-rendering="optimizeQuality" fill-rule="evenodd" clip-rule="evenodd" data-type="color">
    <g>
        <path d="M1765.5-.5h9c5.67 2.333 9.67 6.333 12 12v7c-2.17 3.11-4.5 6.277-7 9.5-1.72 1.559-3.72 2.392-6 2.5.17 176.667 0 353.334-.5 530a11.381 11.381 0 0 1-1.5 3.5l-1663 1c-5.494 9.585-13.161 11.918-23 7-7.69-6.692-9.024-14.526-4-23.5-1.469-3.222-1.969-6.556-1.5-10a61.629 61.629 0 0 0 5-14c3.379-2.707 4.879-6.207 4.5-10.5A41981.776 41981.776 0 0 1 89 16.5c.318-1.56 1.15-2.728 2.5-3.5 554.334-.167 1108.67-.667 1663-1.5.83-1.667 1.67-3.333 2.5-5 3.07-2.258 5.91-4.592 8.5-7Zm-1670 20h163v86h-163v-86Zm166 0h165v86h-165v-86Zm168 0h165v86h-165v-86Zm168 0h165v86h-165v-86Zm168 0h164v86h-164v-86Zm167 0h165v86h-165v-86Zm168 0h165v86h-165v-86Zm168 0h165v58c-46.97 9.228-93.97 18.395-141 27.5-7.99.5-15.99.666-24 .5v-86Zm167 0h166c.32 8.585-.02 17.085-1 25.5a10765.223 10765.223 0 0 1-165 31.5v-57Zm168 0h115v3c-38.32 7.13-76.65 14.13-115 21v-24Zm146 4c4.36-.642 7.7.858 10 4.5a21.42 21.42 0 0 0 6.5 3.5c.5 24.664.67 49.331.5 74h-163v-53a7063.288 7063.288 0 0 0 146-29Zm-153 30h5v52h-166c-.6-7.118.06-13.951 2-20.5a13376.42 13376.42 0 0 0 159-31.5Zm-169 33h6v19h-88v-3a1781.382 1781.382 0 0 0 82-16Zm-1332 22h163v88h-163v-88Zm166 0h165v88h-165v-88Zm168 0h165v88h-165v-88Zm168 0h165v88h-165v-88Zm168 0h164c.167 18.336 0 36.67-.5 55-8.386 2.386-13.22 7.886-14.5 16.5a3857.457 3857.457 0 0 0-59 16c-29.998.5-59.998.667-90 .5v-88Zm167 0h165v35a10050.224 10050.224 0 0 0-151 29c-2.301-1.357-4.301-3.19-6-5.5a75.95 75.95 0 0 0-7.5-3.5c-.5-18.33-.667-36.664-.5-55Zm168 0h161v3a17129.69 17129.69 0 0 1-161 30v-33Zm215 0h118v88h-165c-.17-26.002 0-52.002.5-78 15.58-3.415 31.08-6.748 46.5-10Zm120 0h166v88h-166v-88Zm168 0h163v88h-163v-88Zm-345 11h7v77h-165v-46a6498.783 6498.783 0 0 0 158-31Zm-168 33h7v44h-161c-.219-1.175.114-2.175 1-3 5.229-2.791 8.229-7.124 9-13a5500.018 5500.018 0 0 0 144-28Zm-177 36a12.93 12.93 0 0 1 5 .5c1.576 2.077 3.576 3.577 6 4.5.886.825 1.219 1.825 1 3h-31v-3c6.59-1.092 12.923-2.759 19-5Zm-818 11h163v88h-163v-88Zm166 0h165v88h-165v-88Zm168 0h165v68a10101.61 10101.61 0 0 0-67.5 18c-3.063-1.381-5.896-3.214-8.5-5.5-8.928-3.246-15.928-.913-21 7-22.664.5-45.331.667-68 .5v-88Zm168 0h165c.611 7.778-.056 15.278-2 22.5a9804.523 9804.523 0 0 1-163 43.5v-66Zm275 0h57v88h-164a863.783 863.783 0 0 1 1-58.5 6109.222 6109.222 0 0 0 106-29.5Zm60 0h165v88h-165v-88Zm168 0h165v88h-165v-88Zm168 0h165v88h-165v-88Zm167 0h166v88h-166v-88Zm168 0h163v88h-163v-88Zm-837 1c22.003-.167 44.003 0 66 .5a2409.335 2409.335 0 0 1-66 17.5v-18Zm-8 30h4v57h-165v-13a9477.436 9477.436 0 0 0 161-44Zm-168 47h3v9c-10.672.167-21.339 0-32-.5a889 889 0 0 0 29-8.5Zm-495 13h163v88h-163v-88Zm166 0h165a268.978 268.978 0 0 1-1 32.5l-108 42c-1.333.667-2.667.667-4 0-9.707-7.927-18.207-6.76-25.5 3.5a24.362 24.362 0 0 0-1.5 10h-25v-88Zm168 0h66v6a3914.343 3914.343 0 0 1-66 24v-30Zm109 0h56v88h-165a594.989 594.989 0 0 1 1-48.5l64-25c2-.667 4-.667 6 0 8.25 6.324 16.083 5.824 23.5-1.5a25.64 25.64 0 0 0 3.5-10c3.897-.555 7.563-1.555 11-3Zm59 0h165v88h-165v-88Zm168 0h164v88h-164v-88Zm167 0h165v88h-165v-88Zm168 0h165v88h-165v-88Zm168 0h165v88h-165v-88Zm167 0h166v88h-166v-88Zm168 0h163v88h-163v-88Zm-1181 42h4v46h-109c-.359-2.266.308-4.099 2-5.5a3789.098 3789.098 0 0 0 103-40.5Zm-327 49h163c.3 4.599-.033 9.099-1 13.5a1121.791 1121.791 0 0 1-48.5 25.5c-11.52-7.169-20.52-4.836-27 7l-1 12a389.978 389.978 0 0 1-27 20c-10.905-5.643-19.072-2.976-24.5 8a289.882 289.882 0 0 1-34 1v-87Zm221 0h110v87h-165c-.333-22.343 0-44.677 1-67l25-13.5c1.667-.667 3.333-.667 5 0 10.078 5.474 18.078 3.307 24-6.5Zm113 0h165v87h-165v-87Zm168 0h165v87h-165v-87Zm168 0h164v87h-164v-87Zm167 0h165v87h-165v-87Zm168 0h165v87h-165v-87Zm168 0h165v87h-165v-87Zm167 0h166v87h-166v-87Zm168 0h163v87h-163v-87Zm-1341 1a98.432 98.432 0 0 1 14 .5l-13.5 7.5a32.462 32.462 0 0 1-.5-8Zm-7 22h3v64h-99c-.17-1.322.163-2.489 1-3.5l25-19c16.544 5.067 25.877-.933 28-18a1260.995 1260.995 0 0 0 42-23.5Zm-160 67h33a31.272 31.272 0 0 1 1.5 10l-2.5 2.5c-15.795-3.021-24.295 3.479-25.5 19.5a14.827 14.827 0 0 1-6.5 2v-34Zm65 0h98v86h-149a20.683 20.683 0 0 1-.5-9 108.875 108.875 0 0 1 11-24 45.984 45.984 0 0 0 2-10c11.018-5.045 14.685-13.378 11-25 3.254-3.286 7.088-3.952 11.5-2 9.632-.965 14.966-6.299 16-16Zm101 0h165v86h-165v-86Zm168 0h165v86h-165v-86Zm168 0h165v86h-165v-86Zm168 0h164v86h-164v-86Zm167 0h165v86h-165v-86Zm168 0h165v86h-165v-86Zm168 0h165v86h-165v-86Zm167 0h166v86h-166v-86Zm168 0h163v86h-163v-86Z" fill="#151515" opacity=".808" data-color="1"/>
        <path d="M-.5 24.5v-4c2.287.224 4.453.89 6.5 2 3.798-.426 4.964-2.26 3.5-5.5-2.97-.738-5.636-1.905-8-3.5 1.559-1.63 3.559-2.464 6-2.5 2.873-2.37 2.54-4.204-1-5.5-1.823 1.247-3.823 1.914-6 2-.535-2.738.465-4.572 3-5.5 3.795-.837 7.461-.504 11 1 1.102 2.4 1.269 4.9.5 7.5-.5 1.167-1.333 2-2.5 2.5 6.28 4.146 6.28 8.479 0 13-4.56.945-8.894.445-13-1.5Z" fill="#b3319b" opacity=".86" data-color="2"/>
        <path d="M23.5 1.5a40.936 40.936 0 0 1 9 .5c1.987 1.319 3.154 3.152 3.5 5.5 1.038 5.894.37 11.56-2 17-3.595 1.956-7.428 2.456-11.5 1.5a11.529 11.529 0 0 1-3.5-4.5 49.248 49.248 0 0 1 0-14c.599-2.754 2.099-4.754 4.5-6Zm3 4c1.517.01 2.684.677 3.5 2a42.498 42.498 0 0 1 0 13c-1.667 2.667-3.333 2.667-5 0-1.045-5.286-.545-10.286 1.5-15Z" fill="#b3319b" opacity=".839" data-color="2"/>
        <path d="M43.5 1.5a40.936 40.936 0 0 1 9 .5c1.987 1.319 3.154 3.152 3.5 5.5 1.038 5.894.37 11.56-2 17-3.595 1.956-7.428 2.456-11.5 1.5a11.529 11.529 0 0 1-3.5-4.5 49.248 49.248 0 0 1 0-14c.599-2.754 2.099-4.754 4.5-6Zm3 4c1.517.01 2.684.677 3.5 2a42.498 42.498 0 0 1 0 13c-1.667 2.667-3.333 2.667-5 0-1.045-5.286-.545-10.286 1.5-15Z" fill="#b3319b" opacity=".839" data-color="2"/>
        <path d="M-.5 117.5v-4c4.255-3.764 7.589-8.264 10-13.5-.454-1.622-1.454-2.788-3-3.5-1.823 1.247-3.823 1.914-6 2-.535-2.739.465-4.572 3-5.5 3.795-.837 7.461-.504 11 1 1.537 2.313 2.037 4.813 1.5 7.5A32.642 32.642 0 0 1 7.5 113c3.317.498 6.65.665 10 .5v4h-18Z" fill="#b3319b" opacity=".849" data-color="2"/>
        <path d="M19.5 92.5h15v4h-10v5c9.389-1.113 12.889 2.887 10.5 12-4.488 4.039-9.654 5.039-15.5 3-.929-1.189-1.262-2.522-1-4 2.235-.12 4.401.213 6.5 1 5.232-1.744 5.732-4.244 1.5-7.5a24.935 24.935 0 0 0-7-.5v-13Z" fill="#b3319b" opacity=".867" data-color="2"/>
        <path d="M43.5 92.5a40.936 40.936 0 0 1 9 .5c1.987 1.319 3.154 3.152 3.5 5.5 1.038 5.894.37 11.561-2 17-3.595 1.956-7.428 2.456-11.5 1.5a11.529 11.529 0 0 1-3.5-4.5 49.248 49.248 0 0 1 0-14c.599-2.754 2.099-4.754 4.5-6Zm3 4c1.517.01 2.684.677 3.5 2a42.498 42.498 0 0 1 0 13c-1.667 2.667-3.333 2.667-5 0-1.045-5.285-.545-10.285 1.5-15Z" fill="#b3319b" opacity=".839" data-color="2"/>
        <path d="M-.5 208.5v-4c4.255-3.764 7.589-8.264 10-13.5-.454-1.622-1.454-2.788-3-3.5-1.823 1.247-3.823 1.914-6 2-.535-2.738.465-4.572 3-5.5 3.795-.837 7.461-.504 11 1 1.537 2.313 2.037 4.813 1.5 7.5A32.642 32.642 0 0 1 7.5 204c3.317.498 6.65.665 10 .5v4h-18Z" fill="#b3319b" opacity=".849" data-color="2"/>
        <path d="M23.5 183.5a40.911 40.911 0 0 1 9 .5c1.987 1.319 3.154 3.152 3.5 5.5 1.038 5.894.37 11.561-2 17-3.595 1.956-7.428 2.456-11.5 1.5a11.529 11.529 0 0 1-3.5-4.5 49.248 49.248 0 0 1 0-14c.599-2.754 2.099-4.754 4.5-6Zm3 4c1.517.011 2.684.677 3.5 2a42.498 42.498 0 0 1 0 13c-1.667 2.667-3.333 2.667-5 0-1.045-5.285-.545-10.285 1.5-15Z" fill="#b3319b" opacity=".839" data-color="2"/>
        <path d="M43.5 183.5a40.911 40.911 0 0 1 9 .5c1.987 1.319 3.154 3.152 3.5 5.5 1.038 5.894.37 11.561-2 17-3.595 1.956-7.428 2.456-11.5 1.5a11.529 11.529 0 0 1-3.5-4.5 49.248 49.248 0 0 1 0-14c.599-2.754 2.099-4.754 4.5-6Zm3 4c1.517.011 2.684.677 3.5 2a42.498 42.498 0 0 1 0 13c-1.667 2.667-3.333 2.667-5 0-1.045-5.285-.545-10.285 1.5-15Z" fill="#b3319b" opacity=".839" data-color="2"/>
        <path d="M6.5 274.5h6v21h4v4a112.97 112.97 0 0 1-15-.5c-1.333-1-1.333-2 0-3a12.93 12.93 0 0 1 5-.5 57.123 57.123 0 0 0-1-15 18.084 18.084 0 0 0-3.5 2c-.87-.608-1.37-1.441-1.5-2.5 1.404-2.527 3.404-4.36 6-5.5Z" fill="#b3319b" opacity=".857" data-color="2"/>
        <path d="M19.5 274.5h15v4h-10v5c9.389-1.113 12.889 2.887 10.5 12-4.488 4.039-9.654 5.039-15.5 3-.929-1.189-1.262-2.522-1-4 2.235-.12 4.401.213 6.5 1 5.232-1.744 5.732-4.244 1.5-7.5a24.935 24.935 0 0 0-7-.5v-13Z" fill="#b3319b" opacity=".867" data-color="2"/>
        <path d="M43.5 274.5a40.911 40.911 0 0 1 9 .5c1.987 1.319 3.154 3.152 3.5 5.5 1.038 5.894.37 11.561-2 17-3.595 1.956-7.428 2.456-11.5 1.5a11.529 11.529 0 0 1-3.5-4.5 49.248 49.248 0 0 1 0-14c.599-2.754 2.099-4.754 4.5-6Zm3 4c1.517.011 2.684.677 3.5 2a42.498 42.498 0 0 1 0 13c-1.667 2.667-3.333 2.667-5 0-1.045-5.285-.545-10.285 1.5-15Z" fill="#b3319b" opacity=".839" data-color="2"/>
        <path d="M6.5 364.5h6v21h4v4a112.97 112.97 0 0 1-15-.5c-1.333-1-1.333-2 0-3a12.93 12.93 0 0 1 5-.5 57.123 57.123 0 0 0-1-15 18.084 18.084 0 0 0-3.5 2c-.87-.608-1.37-1.441-1.5-2.5 1.404-2.527 3.404-4.36 6-5.5Z" fill="#b3319b" opacity=".857" data-color="2"/>
        <path d="M23.5 364.5a40.911 40.911 0 0 1 9 .5c1.987 1.319 3.154 3.152 3.5 5.5 1.038 5.894.37 11.561-2 17-3.595 1.956-7.428 2.456-11.5 1.5a11.529 11.529 0 0 1-3.5-4.5 49.248 49.248 0 0 1 0-14c.599-2.754 2.099-4.754 4.5-6Zm3 4c1.517.011 2.684.677 3.5 2a42.498 42.498 0 0 1 0 13c-1.667 2.667-3.333 2.667-5 0-1.045-5.285-.545-10.285 1.5-15Z" fill="#b3319b" opacity=".839" data-color="2"/>
        <path d="M43.5 364.5a40.911 40.911 0 0 1 9 .5c1.987 1.319 3.154 3.152 3.5 5.5 1.038 5.894.37 11.561-2 17-3.595 1.956-7.428 2.456-11.5 1.5a11.529 11.529 0 0 1-3.5-4.5 49.248 49.248 0 0 1 0-14c.599-2.754 2.099-4.754 4.5-6Zm3 4c1.517.011 2.684.677 3.5 2a42.498 42.498 0 0 1 0 13c-1.667 2.667-3.333 2.667-5 0-1.045-5.285-.545-10.285 1.5-15Z" fill="#b3319b" opacity=".839" data-color="2"/>
        <path d="M19.5 455.5h15v4h-10v5c9.389-1.113 12.889 2.887 10.5 12-4.488 4.039-9.654 5.039-15.5 3-.929-1.189-1.262-2.522-1-4 2.235-.12 4.401.213 6.5 1 5.232-1.744 5.732-4.244 1.5-7.5a24.935 24.935 0 0 0-7-.5v-13Z" fill="#b3319b" opacity=".867" data-color="2"/>
        <path d="M43.5 455.5a40.911 40.911 0 0 1 9 .5c1.987 1.319 3.154 3.152 3.5 5.5 1.038 5.894.37 11.561-2 17-3.595 1.956-7.428 2.456-11.5 1.5a11.529 11.529 0 0 1-3.5-4.5 49.248 49.248 0 0 1 0-14c.599-2.754 2.099-4.754 4.5-6Zm3 4c1.517.011 2.684.677 3.5 2a42.498 42.498 0 0 1 0 13c-1.667 2.667-3.333 2.667-5 0-1.045-5.285-.545-10.285 1.5-15Z" fill="#b3319b" opacity=".839" data-color="2"/>
        <path d="M43.5 546.5a40.911 40.911 0 0 1 9 .5c1.987 1.319 3.154 3.152 3.5 5.5 1.038 5.894.37 11.561-2 17-3.595 1.956-7.428 2.456-11.5 1.5a11.529 11.529 0 0 1-3.5-4.5 49.248 49.248 0 0 1 0-14c.599-2.754 2.099-4.754 4.5-6Zm3 4c1.517.011 2.684.677 3.5 2a42.498 42.498 0 0 1 0 13c-1.667 2.667-3.333 2.667-5 0-1.045-5.285-.545-10.285 1.5-15Z" fill="#b3319b" opacity=".839" data-color="2"/>
        <path d="M69.5 619.5c0-.667-.333-1-1-1-4.54-8.412-2.207-12.245 7-11.5a11.529 11.529 0 0 1 3.5 4.5l1-14c1.011-.837 2.178-1.17 3.5-1a728.1 728.1 0 0 0 1.5 32c-1.08 1.894-2.413 2.227-4 1l-1-15c-1.973 5.183-5.473 6.85-10.5 5Zm1-9c2.952.899 4.119 2.899 3.5 6-2.264-1.416-3.431-3.416-3.5-6Z" fill="#b3319b" opacity=".735" data-color="2"/>
        <path d="M248.5 596.5h3a112.97 112.97 0 0 0 .5 15c2.072-4.643 5.572-6.143 10.5-4.5 5.464 5.618 4.631 10.118-2.5 13.5-3.68-1.013-6.013-3.347-7-7-.799 4.587-.632 9.087.5 13.5a23.65 23.65 0 0 0-3 3.5 3.647 3.647 0 0 1-1.5-1 114.67 114.67 0 0 0-1.5-15c-3.227 6.914-7.393 7.58-12.5 2-2.575-7.765.258-10.932 8.5-9.5 1.82 1.805 2.986 3.972 3.5 6.5.212-5.748.712-11.415 1.5-17Zm-10 14c2.516 1.1 3.516 2.767 3 5-2.256-.921-3.256-2.588-3-5Zm19 0c2.881.822 3.881 2.489 3 5-2.256-.921-3.256-2.588-3-5Z" fill="#b3319b" opacity=".735" data-color="2"/>
        <path d="M416.5 596.5c1.248.834 1.915 2.167 2 4a212.292 212.292 0 0 1 1.5 28 7.248 7.248 0 0 1-2.5 2 132.081 132.081 0 0 1-2.5-16c-3.644 7.485-7.978 7.818-13 1-.964-7.534 2.202-10.201 9.5-8 1.797 1.631 2.964 3.631 3.5 6a36.876 36.876 0 0 0-.5-10.5c-.162-2.502.505-4.669 2-6.5Zm-11 14c2.229.555 3.895 1.889 5 4-2.949.752-4.616-.582-5-4Z" fill="#b3319b" opacity=".74" data-color="2"/>
        <path d="M583.5 596.5h3a399.057 399.057 0 0 1 1.5 32 7.248 7.248 0 0 1-2.5 2c-2.133-11.323-2.8-22.656-2-34Z" fill="#b3319b" opacity=".729" data-color="2"/>
        <path d="M751.5 596.5h3a243.093 243.093 0 0 0 2 30.5c-.694 2.748-2.194 3.582-4.5 2.5l-1-15c-2.766 6.525-6.766 7.525-12 3-3.895-8.266-1.395-11.766 7.5-10.5a11.532 11.532 0 0 1 3.5 4.5c.219-5.082.719-10.082 1.5-15Zm-10 14c2.861.737 3.861 2.404 3 5-1.762-1.188-2.762-2.855-3-5Z" fill="#b3319b" opacity=".732" data-color="2"/>
        <path d="M919.5 596.5h3a112.97 112.97 0 0 0 .5 15c3.532-5.79 7.865-6.457 13-2 2.441 5.456.774 9.122-5 11-4.13-1.128-6.464-3.795-7-8a38.463 38.463 0 0 0 .5 14.5 15.074 15.074 0 0 1-3 3.5 3.647 3.647 0 0 1-1.5-1 114.67 114.67 0 0 0-1.5-15c-3.227 6.914-7.393 7.58-12.5 2-2.575-7.765.258-10.932 8.5-9.5 1.82 1.805 2.986 3.972 3.5 6.5.212-5.748.712-11.415 1.5-17Zm-10 14c2.516 1.1 3.516 2.767 3 5-2.256-.921-3.256-2.588-3-5Zm19 0c2.861.737 3.861 2.404 3 5-2.256-.921-3.256-2.588-3-5Z" fill="#b3319b" opacity=".731" data-color="2"/>
        <path d="M1087.5 596.5c1-.086 1.83.248 2.5 1a382.146 382.146 0 0 1 1 31 7.239 7.239 0 0 1-2.5 2 132.674 132.674 0 0 1-2.5-16c-3.55 7.604-7.88 7.938-13 1-.96-7.534 2.2-10.201 9.5-8 1.8 1.631 2.96 3.631 3.5 6 .34-3.501.17-7.001-.5-10.5-.16-2.502.51-4.669 2-6.5Zm-10 14c2.52 1.1 3.52 2.767 3 5-2.58-1.142-3.58-2.809-3-5Z" fill="#b3319b" opacity=".74" data-color="2"/>
        <path d="M1254.5 596.5h3a398.13 398.13 0 0 1 1.5 32 7.239 7.239 0 0 1-2.5 2c-2.13-11.323-2.8-22.656-2-34Z" fill="#b3319b" opacity=".73" data-color="2"/>
        <path d="M1422.5 596.5h3a525.276 525.276 0 0 0 2 30.5c-.69 2.748-2.19 3.582-4.5 2.5-.33-5-.67-10-1-15-2.77 6.525-6.77 7.525-12 3-3.89-8.266-1.39-11.766 7.5-10.5 1.17 1.167 2.33 2.333 3.5 3.5.22-4.75.72-9.416 1.5-14Zm-10 14c2.86.737 3.86 2.404 3 5-1.76-1.188-2.76-2.855-3-5Z" fill="#b3319b" opacity=".743" data-color="2"/>
        <path d="M1590.5 596.5h3c.03 10.221.69 20.387 2 30.5a15.122 15.122 0 0 1-3 3.5 3.595 3.595 0 0 1-1.5-1c-.17-5.033-.67-10.033-1.5-15-3.23 6.914-7.39 7.58-12.5 2-2.56-7.781.28-10.948 8.5-9.5 2.27 1.558 3.43 3.724 3.5 6.5.21-5.748.71-11.415 1.5-17Zm-10 14c2.88.822 3.88 2.489 3 5-2.26-.921-3.26-2.588-3-5Z" fill="#b3319b" opacity=".73" data-color="2"/>
        <path d="M1758.5 596.5h3c-.17 5.011 0 10.011.5 15 2.07-4.643 5.57-6.143 10.5-4.5 5.46 5.625 4.63 10.125-2.5 13.5-3.26-.922-5.59-2.922-7-6-.77 4.058-.6 8.058.5 12-1 1.667-2.33 3-4 4a132.674 132.674 0 0 1-2.5-16c-2.91 6.968-6.91 7.634-12 2-2.57-7.765.26-10.932 8.5-9.5 1.82 1.8 2.98 3.966 3.5 6.5.34-3.501.17-7.001-.5-10.5-.16-2.502.51-4.669 2-6.5Zm-10 14c2.52 1.1 3.52 2.767 3 5-2.58-1.142-3.58-2.809-3-5Zm19 0c2.86.737 3.86 2.404 3 5-1.76-1.188-2.76-2.855-3-5Z" fill="#b3319b" opacity=".742" data-color="2"/>
        <path d="M87.5 606.5c7.613-.886 11.113 2.447 10.5 10-3.272 4.903-6.939 5.237-11 1-2.134-3.853-1.967-7.52.5-11Zm2 4c3.22.521 4.22 2.188 3 5-1.762-1.188-2.762-2.855-3-5Z" fill="#b3319b" opacity=".743" data-color="2"/>
        <path d="M423.5 606.5c5.97-.861 9.637 1.639 11 7.5-3.556 7.953-8.056 8.453-13.5 1.5-1.073-3.6-.24-6.6 2.5-9Zm2 4c2.516 1.1 3.516 2.767 3 5-2.578-1.142-3.578-2.809-3-5Z" fill="#b3319b" opacity=".743" data-color="2"/>
        <path d="M572.5 606.5c7.155-.347 10.321 2.986 9.5 10-4.374 5.415-8.374 5.082-12-1-1.073-3.6-.24-6.6 2.5-9Zm1 4c2.229.555 3.895 1.889 5 4-2.949.752-4.616-.582-5-4Z" fill="#b3319b" opacity=".749" data-color="2"/>
        <path d="M591.5 606.5c7.155-.347 10.321 2.986 9.5 10-3.225 4.887-6.892 5.22-11 1-2.497-4.331-1.997-7.998 1.5-11Zm1 4c2.229.555 3.895 1.889 5 4-2.647.395-4.313-.938-5-4Z" fill="#b3319b" opacity=".73" data-color="2"/>
        <path d="M758.5 606.5c7.613-.886 11.113 2.447 10.5 10-3.272 4.903-6.939 5.237-11 1-2.134-3.853-1.967-7.52.5-11Zm2 4c3.219.521 4.219 2.188 3 5-1.762-1.188-2.762-2.855-3-5Z" fill="#b3319b" opacity=".748" data-color="2"/>
        <path d="M1094.5 606.5c4.29-.964 7.46.369 9.5 4 2 4.964.33 8.297-5 10-7.66-2.939-9.16-7.605-4.5-14Zm2 4c2.52 1.1 3.52 2.767 3 5-2.26-.921-3.26-2.588-3-5Z" fill="#b3319b" opacity=".742" data-color="2"/>
        <path d="M1243.5 606.5c7.15-.347 10.32 2.986 9.5 10-3.99 5.388-7.82 5.221-11.5-.5-1.69-3.725-1.02-6.891 2-9.5Zm1 4c2.23.555 3.9 1.889 5 4-2.65.395-4.31-.938-5-4Z" fill="#b3319b" opacity=".754" data-color="2"/>
        <path d="M1262.5 606.5c5.7-.482 9.37 2.018 11 7.5-3.46 7.623-7.79 8.289-13 2-1.68-3.767-1.01-6.934 2-9.5Zm1 4c2.23.555 3.9 1.889 5 4-2.65.395-4.31-.938-5-4Z" fill="#b3319b" opacity=".742" data-color="2"/>
        <path d="M1429.5 606.5c7.61-.886 11.11 2.447 10.5 10-3.27 4.903-6.94 5.237-11 1-2.13-3.853-1.97-7.52.5-11Zm2 4c2.23.555 3.9 1.889 5 4-2.65.395-4.31-.938-5-4Z" fill="#b3319b" opacity=".745" data-color="2"/>
        <path d="M1597.5 606.5c6.26-1.239 9.92 1.261 11 7.5-2.88 7.295-7.05 8.128-12.5 2.5-.96-3.649-.46-6.982 1.5-10Zm2 4c2.97.465 4.14 2.132 3.5 5-2.16-.989-3.33-2.656-3.5-5Z" fill="#b3319b" opacity=".737" data-color="2"/>
        <path d="M1235.5 613.5c1.87.359 3.37 1.359 4.5 3 1.7 7.145 3.87 14.145 6.5 21-1.58 3.878-3.75 4.545-6.5 2a273.106 273.106 0 0 0-5-18c-2.49 3.318-5.65 5.151-9.5 5.5a3.92 3.92 0 0 1-1-2 59.923 59.923 0 0 1 11-11.5Z" fill="#b3319b" opacity=".775" data-color="2"/>
        <path d="M899.5 614.5c1.522.691 2.522 1.858 3 3.5-1.507 2.434-3.507 4.434-6 6 2.218 3.089 4.551 3.089 7 0 6.001-1.333 9.667 1.001 11 7-1.023 6.026-4.523 9.859-10.5 11.5-1.301-.598-2.135-1.598-2.5-3 1.529-1.688 3.363-3.021 5.5-4 2.221-2.901 1.554-4.901-2-6a2165.194 2165.194 0 0 0-7 5c-2.847-3.511-5.68-7.011-8.5-10.5 2.731-3.854 6.064-7.02 10-9.5Z" fill="#b3319b" opacity=".757" data-color="2"/>
        <path d="M1066.5 614.5c2.41-.256 4.08.744 5 3a56.069 56.069 0 0 1-5.5 4c-.98 6.078.19 6.911 3.5 2.5 5.76-2.955 9.93-1.455 12.5 4.5.45 9.884-4.05 13.384-13.5 10.5-6.84-4.845-9.34-11.345-7.5-19.5 1.81-1.8 3.65-3.467 5.5-5Zm6 14c2.42.585 4.09 2.085 5 4.5-3.2 3.257-5.53 2.59-7-2 .56-1.011 1.22-1.844 2-2.5Z" fill="#b3319b" opacity=".78" data-color="2"/>
        <path d="M68.5 618.5c.667 0 1 .333 1 1a82.844 82.844 0 0 1 5.5 9c1.567 5.033.067 8.867-4.5 11.5-8.353.36-14.187-3.474-17.5-11.5-1.692-7.282 1.142-11.616 8.5-13a33.092 33.092 0 0 1 7 3Zm-9 3c1.67.251 3.17.918 4.5 2l6 8c.268 2.09-.732 3.424-3 4-3.922-3.251-7.088-7.084-9.5-11.5.88-.708 1.547-1.542 2-2.5Z" fill="#b3319b" opacity=".789" data-color="2"/>
        <path d="M729.5 615.5a8.43 8.43 0 0 1 4 .5c3.026 5.04 7.193 8.54 12.5 10.5.595 1.399.428 2.732-.5 4 3.004 3.324 2.338 5.658-2 7a9.425 9.425 0 0 0-3-3 87.245 87.245 0 0 0-7.5 5c-1.261-.259-2.261-.926-3-2a122.994 122.994 0 0 1-3.5-16.5c.363-2.192 1.363-4.026 3-5.5Zm3 10c4.243 1.761 4.743 4.094 1.5 7-1.202-2.177-1.702-4.511-1.5-7Z" fill="#b3319b" opacity=".79" data-color="2"/>
        <path d="M1400.5 615.5c6.67-.667 9.67 2.333 9 9 6.81-.049 9.64 3.284 8.5 10-3.02 5.258-7.52 7.425-13.5 6.5-2.85-2.571-3.51-5.571-2-9-7.31-.652-9.81-4.486-7.5-11.5 1.73-1.902 3.56-3.569 5.5-5Zm0 6c3.41-.116 4.74 1.55 4 5-4.04.218-5.37-1.449-4-5Zm7 9h5c-.5 5.094-2.5 5.927-6 2.5.75-.671 1.09-1.504 1-2.5Z" fill="#b3319b" opacity=".79" data-color="2"/>
        <path d="M1737.5 615.5c8.04 2.203 13.37 7.369 16 15.5-1.02 7.674-5.35 10.674-13 9-4.2-2.567-7.37-6.067-9.5-10.5-2.25-6.924-.09-11.591 6.5-14Zm-1 6c5.28 1.951 8.95 5.618 11 11-.37 1.41-1.2 2.41-2.5 3-3.92-2.496-6.92-5.83-9-10-.58-1.428-.41-2.762.5-4Z" fill="#b3319b" opacity=".804" data-color="2"/>
        <path d="M225.5 616.5c1.517.011 2.684.677 3.5 2a160.621 160.621 0 0 0 11 13c2.842-2.835 5.008-2.335 6.5 1.5a85.405 85.405 0 0 1-12.5 9.5c-1.301-.598-2.135-1.598-2.5-3l3-4a95.458 95.458 0 0 0-8.5-10c-1.25 4.797-3.083 5.13-5.5 1 .555-4.065 2.221-7.398 5-10Z" fill="#b3319b" opacity=".757" data-color="2"/>
        <path d="M392.5 616.5c4.454-.883 7.954.45 10.5 4 1.238 4.704 1.571 9.371 1 14a20.823 20.823 0 0 1 7-5c1.5.167 2.333 1 2.5 2.5-3.202 4.869-7.369 8.702-12.5 11.5l-2-2a84.188 84.188 0 0 0-2-17c-3.537-1.318-5.371.015-5.5 4-2.988.345-4.321-.988-4-4l.5-3a31.447 31.447 0 0 0 4.5-5Z" fill="#b3319b" opacity=".803" data-color="2"/>
        <path d="M560.5 616.5c6.675-1.314 10.009 1.353 10 8 5.716-.119 8.716 2.714 9 8.5-2.078 5.765-6.078 8.765-12 9a7.248 7.248 0 0 1-2-2.5 38.427 38.427 0 0 0 6.5-5c.915-2.42.082-3.753-2.5-4-8.742 4.34-10.075 2.506-4-5.5a10.756 10.756 0 0 0-3-2.5 16.635 16.635 0 0 0-5 6c-1.546-.712-2.546-1.878-3-3.5.924-3.713 2.924-6.546 6-8.5Z" fill="#b3319b" opacity=".778" data-color="2"/>
        <path d="M1566.5 616.5c10.42-.089 16.42 5.077 18 15.5-.6 5.267-3.43 8.767-8.5 10.5-2.16-.885-2.99-2.552-2.5-5 5.23-.706 6.73-3.372 4.5-8-5 6.667-10 6.667-15 0-1.33-5.085-.17-9.419 3.5-13Zm2 5c2.4-.107 4.24.893 5.5 3-.93 4.772-2.93 5.106-6 1-.58-1.428-.41-2.762.5-4Z" fill="#b3319b" opacity=".795" data-color="2"/>
        <path d="M36.5 634.5c8.589 1.747 14.256 6.914 17 15.5-1.018 7.674-5.351 10.674-13 9-5.638-3.972-9.304-9.305-11-16 1.113-3.937 3.446-6.77 7-8.5Zm0 6c5.466 1.968 9.132 5.802 11 11.5-.87 1.769-2.204 2.436-4 2a45.255 45.255 0 0 1-7.5-8.5c-.64-1.765-.473-3.432.5-5Z" fill="#b3319b" opacity=".796" data-color="2"/>
        <path d="M204.5 634.5c7.302 1.124 12.469 5.124 15.5 12 1.346 10.74-3.154 14.573-13.5 11.5-6.093-4.38-8.927-10.213-8.5-17.5 1.436-2.942 3.603-4.942 6.5-6Zm0 6c2.763.244 4.929 1.577 6.5 4a48.493 48.493 0 0 1 4.5 7c-.847 1.345-2.013 2.345-3.5 3-3.823-2.979-6.656-6.646-8.5-11a10.014 10.014 0 0 1 1-3Z" fill="#b3319b" opacity=".787" data-color="2"/>
        <path d="M372.5 634.5c7.06 1.879 12.227 6.213 15.5 13 1.567 5.033.067 8.867-4.5 11.5-8.353.36-14.187-3.474-17.5-11.5-1.507-6.321.66-10.654 6.5-13Zm0 6c2.695.433 4.862 1.766 6.5 4a84.635 84.635 0 0 1 4.5 7.5 20.499 20.499 0 0 1-3.5 2.5c-3.949-3.274-7.116-7.107-9.5-11.5.881-.708 1.547-1.542 2-2.5Z" fill="#b3319b" opacity=".797" data-color="2"/>
        <path d="M540.5 634.5c8.49 2.325 13.823 7.825 16 16.5-2.81 8.689-8.143 10.689-16 6-5.418-4.662-7.584-10.495-6.5-17.5 1.805-2.326 3.972-3.992 6.5-5Zm-1 6c5.284 1.951 8.951 5.618 11 11-.368 1.41-1.201 2.41-2.5 3-5.753-3.211-8.586-7.878-8.5-14Z" fill="#b3319b" opacity=".803" data-color="2"/>
        <path d="M707.5 634.5c8.589 1.747 14.256 6.914 17 15.5-1.018 7.674-5.351 10.674-13 9-5.638-3.972-9.304-9.305-11-16 1.459-3.619 3.793-6.453 7-8.5Zm0 6c5.466 1.968 9.132 5.802 11 11.5-.871 1.769-2.204 2.436-4 2a45.255 45.255 0 0 1-7.5-8.5c-.64-1.765-.473-3.432.5-5Z" fill="#b3319b" opacity=".8" data-color="2"/>
        <path d="M875.5 634.5c11.029 2.189 16.196 8.856 15.5 20-3.366 5.109-7.866 6.276-13.5 3.5a32.64 32.64 0 0 1-8.5-11.5c-.755-2.803-.422-5.47 1-8a35.524 35.524 0 0 0 5.5-4Zm0 6c2.763.244 4.929 1.577 6.5 4a48.493 48.493 0 0 1 4.5 7c-.847 1.345-2.013 2.345-3.5 3-3.823-2.979-6.656-6.646-8.5-11a10.014 10.014 0 0 1 1-3Z" fill="#b3319b" opacity=".791" data-color="2"/>
        <path d="M1043.5 634.5c7.7 1.186 12.86 5.519 15.5 13 1.57 5.033.07 8.867-4.5 11.5-8.35.36-14.19-3.474-17.5-11.5-1.51-6.321.66-10.654 6.5-13Zm0 6c2.7.433 4.86 1.766 6.5 4l4.5 7c-.85 1.345-2.01 2.345-3.5 3-3.92-3.251-7.09-7.084-9.5-11.5.88-.708 1.55-1.542 2-2.5Z" fill="#b3319b" opacity=".789" data-color="2"/>
        <path d="M1211.5 634.5c6.34 1.484 11.17 5.151 14.5 11 2.69 9.983-1.15 14.483-11.5 13.5-3.92-3.251-7.09-7.084-9.5-11.5-1.94-6.52.22-10.854 6.5-13Zm-1 6a8.78 8.78 0 0 1 5 1.5 28.954 28.954 0 0 1 6 9.5c-.37 1.41-1.2 2.41-2.5 3-3.92-2.496-6.92-5.83-9-10-.58-1.428-.41-2.762.5-4Z" fill="#b3319b" opacity=".806" data-color="2"/>
        <path d="M1379.5 634.5c8.04 2.203 13.37 7.369 16 15.5-1.02 7.674-5.35 10.674-13 9-7.7-4.346-10.86-10.846-9.5-19.5 1.8-2.326 3.97-3.992 6.5-5Zm-1 6c5.47 1.968 9.13 5.802 11 11.5-.87 1.769-2.2 2.436-4 2a45.397 45.397 0 0 1-7.5-8.5c-.64-1.765-.47-3.432.5-5Z" fill="#b3319b" opacity=".809" data-color="2"/>
        <path d="M1546.5 634.5c11.03 2.189 16.2 8.856 15.5 20-2.54 4.569-6.37 6.069-11.5 4.5-4.94-2.946-8.44-7.112-10.5-12.5-.75-2.803-.42-5.47 1-8a35.24 35.24 0 0 0 5.5-4Zm0 6c5.25 1.921 8.92 5.588 11 11-.85 1.345-2.01 2.345-3.5 3a80.523 80.523 0 0 1-8-9c-.64-1.765-.47-3.432.5-5Z" fill="#b3319b" opacity=".794" data-color="2"/>
        <path d="M1722.5 661.5h-2c-1.45-2.551-1.12-4.885 1-7a58.476 58.476 0 0 0-8-10 26.698 26.698 0 0 0-2 3.5c-.95.617-1.78.451-2.5-.5-1.15-5.053.35-9.053 4.5-12 4.66 4.825 9.16 9.825 13.5 15 2.57-2.759 4.74-2.426 6.5 1-3.69 3.355-7.35 6.689-11 10Z" fill="#b3319b" opacity=".782" data-color="2"/>
        <path d="M56.5 641.5c5.516-.027 6.85 2.14 4 6.5-4.709.082-6.042-2.085-4-6.5Z" fill="#b3319b" opacity=".742" data-color="2"/>
        <path d="M224.5 641.5c5.516-.027 6.849 2.14 4 6.5-4.93.427-6.263-1.74-4-6.5Z" fill="#b3319b" opacity=".697" data-color="2"/>
        <path d="M392.5 641.5c3.333-.667 5.333.667 6 4-2.099 3.484-4.599 3.818-7.5 1-.122-1.782.378-3.448 1.5-5Z" fill="#b3319b" opacity=".678" data-color="2"/>
        <path d="M560.5 641.5c3.978-.518 5.811 1.148 5.5 5-3.278 3.014-5.778 2.514-7.5-1.5a11.803 11.803 0 0 1 2-3.5Z" fill="#b3319b" opacity=".684" data-color="2"/>
        <path d="M727.5 641.5c5.516-.027 6.849 2.14 4 6.5-4.709.082-6.042-2.085-4-6.5Z" fill="#b3319b" opacity=".724" data-color="2"/>
        <path d="M895.5 641.5c5.516-.027 6.849 2.14 4 6.5-4.93.427-6.263-1.74-4-6.5Z" fill="#b3319b" opacity=".701" data-color="2"/>
        <path d="M1063.5 641.5c3.33-.667 5.33.667 6 4-2.1 3.484-4.6 3.818-7.5 1-.12-1.782.38-3.448 1.5-5Z" fill="#b3319b" opacity=".672" data-color="2"/>
        <path d="M1231.5 641.5c3.98-.518 5.81 1.148 5.5 5-3.28 3.014-5.78 2.514-7.5-1.5a11.738 11.738 0 0 1 2-3.5Z" fill="#b3319b" opacity=".684" data-color="2"/>
        <path d="M1398.5 641.5c5.52-.027 6.85 2.14 4 6.5-4.71.082-6.04-2.085-4-6.5Z" fill="#b3319b" opacity=".723" data-color="2"/>
        <path d="M1566.5 641.5c5.52-.027 6.85 2.14 4 6.5-4.93.427-6.26-1.74-4-6.5Z" fill="#b3319b" opacity=".704" data-color="2"/>
        <path d="M1734.5 641.5c3.33-.667 5.33.667 6 4-1.51 2.918-3.68 3.584-6.5 2-.68-2.098-.51-4.098.5-6Z" fill="#b3319b" opacity=".697" data-color="2"/>
    </g>
</svg>
